<?xml version="1.0" encoding="UTF-8" standalone="no"?>
<svg
   height="16"
   viewBox="0 0 16 16"
   width="16"
   version="1.1"
   id="application_icon"
   sodipodi:docname="godot-icon.svg"
   inkscape:version="1.3 (0e150ed6c4, 2023-07-21)"
   xmlns:inkscape="http://www.inkscape.org/namespaces/inkscape"
   xmlns:sodipodi="http://sodipodi.sourceforge.net/DTD/sodipodi-0.dtd"
   xmlns="http://www.w3.org/2000/svg"
   xmlns:svg="http://www.w3.org/2000/svg"
   xmlns:rdf="http://www.w3.org/1999/02/22-rdf-syntax-ns#"
   xmlns:cc="http://creativecommons.org/ns#"
   xmlns:dc="http://purl.org/dc/elements/1.1/">
  <title
     id="title">Godot Engine Logo</title>
  <metadata
     id="metadata">
    <rdf:RDF>
      <cc:Work
         rdf:about="">
        <dc:title>Godot Engine Logo</dc:title>
        <dc:date>2023-11-19</dc:date>
        <dc:rights>
          <cc:Agent>
            <dc:title>Copyright (c) 2017 Andrea Calabró</dc:title>
          </cc:Agent>
        </dc:rights>
        <cc:license
           rdf:resource="http://creativecommons.org/licenses/by/4.0/" />
        <dc:creator>
          <cc:Agent>
            <dc:title>Andrea Calabró</dc:title>
          </cc:Agent>
        </dc:creator>
        <dc:publisher>
          <cc:Agent>
            <dc:title>Godot Engine</dc:title>
          </cc:Agent>
        </dc:publisher>
        <dc:identifier>godot.application.icon</dc:identifier>
        <dc:source>https://github.com/godotengine/godot</dc:source>
        <dc:language>en</dc:language>
        <dc:subject>
          <rdf:Bag>
            <rdf:li>application</rdf:li>
            <rdf:li>icon</rdf:li>
            <rdf:li>logo</rdf:li>
            <rdf:li>godot</rdf:li>
          </rdf:Bag>
        </dc:subject>
        <dc:contributor>
          <cc:Agent>
            <dc:title>Andrea Calabró&#10;David Krummenacher</dc:title>
          </cc:Agent>
        </dc:contributor>
        <dc:description>Logo of Godot Engine showing a blue robot head. Recreation of https://github.com/godotengine/godot/blob/master/editor/icons/Godot.svg.</dc:description>
      </cc:Work>
      <cc:License
         rdf:about="http://creativecommons.org/licenses/by/4.0/">
        <cc:permits
           rdf:resource="http://creativecommons.org/ns#Reproduction" />
        <cc:permits
           rdf:resource="http://creativecommons.org/ns#Distribution" />
        <cc:requires
           rdf:resource="http://creativecommons.org/ns#Notice" />
        <cc:requires
           rdf:resource="http://creativecommons.org/ns#Attribution" />
        <cc:permits
           rdf:resource="http://creativecommons.org/ns#DerivativeWorks" />
      </cc:License>
    </rdf:RDF>
  </metadata>
  <sodipodi:namedview
     id="base_view"
     pagecolor="#595959"
     bordercolor="#333333"
     borderopacity="1"
     inkscape:showpageshadow="0"
     inkscape:pageopacity="0"
     inkscape:pagecheckerboard="0"
     inkscape:deskcolor="#404040"
     inkscape:zoom="16"
     inkscape:cx="3.03125"
     inkscape:cy="11"
     inkscape:window-width="1368"
     inkscape:window-height="850"
     inkscape:window-x="-6"
     inkscape:window-y="-6"
     inkscape:window-maximized="1"
     inkscape:current-layer="base_layer"
     showgrid="true">
    <inkscape:grid
       id="base_grid"
       units="px"
       originx="0"
       originy="0"
       spacingx="1"
       spacingy="1"
       empcolor="#999999"
       empopacity="0.30196078"
       color="#999999"
       opacity="0.14901961"
       empspacing="5"
       dotted="false"
       gridanglex="30"
       gridanglez="30"
       visible="true" />
  </sodipodi:namedview>
  <defs
     id="base_definitions" />
  <g
     inkscape:groupmode="layer"
     id="base_layer"
     inkscape:label="Base Layer">
    <path
       id="head"
       d="M 6.37,0.32 C 5.64,0.49 4.92,0.71 4.24,1.05 4.26,1.65 4.29,2.23 4.37,2.81 3.81,3.11 3.34,3.52 2.86,3.92 2.41,3.62 1.93,3.34 1.43,3.09 0.9,3.66 0.41,4.28 0,4.97 c 0.31,0.49 0.62,0.96 0.97,1.4 0,0 0.01,5.32 0.01,5.38 0,2.47 3.13,3.65 7.02,3.65 3.89,-0 7.02,-1.19 7.02,-3.65 0,-0.06 0.01,-5.38 0.01,-5.38 C 15.38,5.93 15.69,5.46 16,4.97 15.59,4.28 15.1,3.66 14.57,3.09 14.07,3.34 13.59,3.62 13.14,3.92 12.69,3.48 12.16,3.14 11.63,2.81 11.71,2.23 11.74,1.65 11.76,1.05 11.08,0.71 10.36,0.49 9.63,0.32 9.34,0.81 9.07,1.35 8.84,1.87 c -0.52,-0.09 -1.15,-0.09 -1.67,0 C 6.93,1.35 6.67,0.81 6.37,0.32 Z"
       fill="#478cbf" />
    <circle
       id="eye_l"
       cx="4.32"
       cy="8.09"
       fill="#ffffff"
       r="1.57" />
    <circle
       id="eye_r"
       cx="11.68"
       cy="8.09"
       fill="#ffffff"
       r="1.57" />
    <path
       d="m 8,9.8 c -0.28,0 -0.5,-0.21 -0.5,-0.46 v -1.44 c 0,-0.25 0.23,-0.46 0.5,-0.46 0.28,0 0.5,0.21 0.5,0.46 v 1.44 c 0,0.25 -0.23,0.46 -0.5,0.46"
       fill="#ffffff"
       id="nose" />
    <path
       id="mouth"
       d="m 0.98,11.16 2.33,0.23 0.08,1.15 c 0.01,0.14 0.12,0.25 0.26,0.26 L 6.42,13 c 0.15,0.01 0.28,-0.09 0.3,-0.24 l 0.16,-1.08 h 2.26 l 0.16,1.08 C 9.31,12.9 9.43,13 9.56,13 c 0.01,0 2.79,-0.2 2.79,-0.2 0.14,-0.01 0.25,-0.12 0.26,-0.26 l 0.08,-1.15 2.33,-0.23 v -0.56 c -0.01,0 -2.62,0.25 -2.62,0.25 -0.14,0.01 -0.24,0.12 -0.25,0.26 l -0.08,1.15 -2.27,0.16 -0.16,-1.06 C 9.63,11.23 9.51,11.13 9.37,11.13 H 6.63 c -0.14,0 -0.26,0.1 -0.28,0.24 l -0.16,1.06 -2.27,-0.16 -0.08,-1.15 c -0.01,-0.14 -0.12,-0.25 -0.25,-0.26 0,0 -2.61,-0.25 -2.62,-0.25 z"
       fill="#ffffff" />
    <circle
       id="pupil_l"
       cx="4.47"
       cy="8.18"
       r="1.04"
       fill="#414042" />
    <circle
       id="pupil_r"
       cx="11.53"
       cy="8.18"
       r="1.04"
       fill="#414042" />
  </g>
</svg>
