<?xml version="1.0" encoding="UTF-8" standalone="no"?>
<svg
   height="192"
   viewBox="0 0 512 192"
   width="512"
   version="1.1"
   id="application_logo"
   sodipodi:docname="godot-logo.svg"
   inkscape:version="1.3 (0e150ed6c4, 2023-07-21)"
   xmlns:inkscape="http://www.inkscape.org/namespaces/inkscape"
   xmlns:sodipodi="http://sodipodi.sourceforge.net/DTD/sodipodi-0.dtd"
   xmlns="http://www.w3.org/2000/svg"
   xmlns:svg="http://www.w3.org/2000/svg"
   xmlns:rdf="http://www.w3.org/1999/02/22-rdf-syntax-ns#"
   xmlns:cc="http://creativecommons.org/ns#"
   xmlns:dc="http://purl.org/dc/elements/1.1/">
  <title
     id="title">Godot Engine Logo</title>
  <metadata
     id="metadata">
    <rdf:RDF>
      <cc:Work
         rdf:about="">
        <dc:title>Godot Engine Logo</dc:title>
        <dc:date>2023-11-19</dc:date>
        <dc:rights>
          <cc:Agent>
            <dc:title>Copyright (c) 2017 Andrea Calabró</dc:title>
          </cc:Agent>
        </dc:rights>
        <dc:creator>
          <cc:Agent>
            <dc:title>Andrea Calabró</dc:title>
          </cc:Agent>
        </dc:creator>
        <dc:publisher>
          <cc:Agent>
            <dc:title>Godot Engine</dc:title>
          </cc:Agent>
        </dc:publisher>
        <dc:identifier>godot.application.logo</dc:identifier>
        <dc:source>https://github.com/godotengine/godot</dc:source>
        <dc:language>en</dc:language>
        <dc:subject>
          <rdf:Bag>
            <rdf:li>application</rdf:li>
            <rdf:li>logo</rdf:li>
            <rdf:li>godot</rdf:li>
          </rdf:Bag>
        </dc:subject>
        <cc:license
           rdf:resource="http://creativecommons.org/licenses/by/4.0/" />
        <dc:description>Logo of Godot Engine showing a blue robot head next to the Godot Engine word mark. Fonts used are Lilita One for the main label and Roboto Sans Condensed Light for the sublabel. Recreation of https://github.com/godotengine/godot/blob/master/editor/icons/Logo.svg.</dc:description>
        <dc:contributor>
          <cc:Agent>
            <dc:title>Andrea Calabró&#10;David Krummenacher</dc:title>
          </cc:Agent>
        </dc:contributor>
        <dc:relation>https://github.com/godotengine/godot/blob/master/editor/icons/Logo.svg</dc:relation>
      </cc:Work>
      <cc:License
         rdf:about="http://creativecommons.org/licenses/by/4.0/">
        <cc:permits
           rdf:resource="http://creativecommons.org/ns#Reproduction" />
        <cc:permits
           rdf:resource="http://creativecommons.org/ns#Distribution" />
        <cc:requires
           rdf:resource="http://creativecommons.org/ns#Notice" />
        <cc:requires
           rdf:resource="http://creativecommons.org/ns#Attribution" />
        <cc:permits
           rdf:resource="http://creativecommons.org/ns#DerivativeWorks" />
      </cc:License>
    </rdf:RDF>
  </metadata>
  <sodipodi:namedview
     id="base_view"
     pagecolor="#595959"
     bordercolor="#333333"
     borderopacity="1"
     inkscape:showpageshadow="0"
     inkscape:pageopacity="0"
     inkscape:pagecheckerboard="0"
     inkscape:deskcolor="#404040"
     inkscape:zoom="0.70710678"
     inkscape:cx="263.75083"
     inkscape:cy="172.53405"
     inkscape:window-width="1368"
     inkscape:window-height="850"
     inkscape:window-x="-6"
     inkscape:window-y="-6"
     inkscape:window-maximized="1"
     inkscape:current-layer="base_layer"
     showgrid="true">
    <inkscape:grid
       id="base_grid"
       units="px"
       originx="0"
       originy="0"
       spacingx="1"
       spacingy="1"
       empcolor="#999999"
       empopacity="0.30196078"
       color="#999999"
       opacity="0.14901961"
       empspacing="5"
       dotted="false"
       gridanglex="30"
       gridanglez="30"
       visible="true" />
  </sodipodi:namedview>
  <defs
     id="base_definitions" />
  <g
     inkscape:groupmode="layer"
     id="base_layer"
     inkscape:label="Base Layer">
    <path
       id="head"
       d="m 90.4,14.7 c -7.7,1.7 -15,4.2 -22.1,7.6 0.1,6.1 0.6,12.3 1.4,18.4 -5.7,3.3 -11,7.1 -15.8,11.5 -4.7,-3.3 -9.6,-6.1 -14.8,-8.5 -5.7,5.9 -10.7,12.3 -14.9,19.4 3.1,5.1 6.5,9.9 10.1,14.6 l -0.2,57.2 c 0,49.7 146.6,49.7 146.6,0 V 77.7 c 3.6,-4.7 7,-9.5 10.1,-14.6 -4.2,-7.1 -9.2,-13.5 -14.9,-19.4 -5.1,2.4 -10.1,5.2 -14.8,8.5 -4.8,-4.5 -10.1,-8.3 -15.8,-11.5 0.9,-6.1 1.3,-12.3 1.4,-18.4 -7.1,-3.3 -14.4,-5.9 -22.1,-7.6 -3.1,5.1 -5.9,10.5 -8.3,16 -5.9,-0.9 -11.7,-0.9 -17.6,0 -2.4,-5.5 -5.2,-10.9 -8.3,-16 z"
       fill="#478cbf" />
    <path
       id="mouth"
       d="m 180.7,122 -27.4,2.5 c -1.5,0.1 -2.4,1 -2.7,2.5 l -0.7,12.1 -23.8,1.8 -1.4,-11 c -0.3,-1.3 -1.2,-2.2 -2.7,-2.7 H 92.8 c -1.5,0.5 -2.4,1.4 -2.7,2.7 l -1.4,11 -23.8,-1.8 -0.7,-12.1 c -0.3,-1.5 -1.2,-2.4 -2.7,-2.5 L 34.1,122 v 5.9 l 24.2,2.2 0.9,12.4 c 0.2,1.2 1,2 2.5,2.3 l 29.2,2 c 1.5,0 2.4,-0.7 2.9,-2 l 1.8,-11.7 H 119 l 1.8,11.7 c 0.5,1.3 1.4,2 2.9,2 l 29.2,-2 c 1.4,-0.3 2.2,-1.1 2.5,-2.3 l 0.9,-12.4 24.4,-2.2 z"
       fill="#ffffff" />
    <circle
       cx="69"
       cy="95.6"
       r="16.2"
       id="eye_l"
       fill="#ffffff" />
    <circle
       cx="145.7"
       cy="95.6"
       r="16.2"
       id="eye_r"
       fill="#ffffff" />
    <path
       d="m 102.2,108.9 c 0.5,6.1 9.9,6.1 10.4,0 V 93.4 c -0.5,-6.1 -9.9,-6.1 -10.4,0 z"
       id="nose"
       fill="#ffffff" />
    <path
       fill="#ffffff"
       d="m 261.9,84.2 c -4.6,-0.1 -9.8,0.9 -9.8,0.9 v 8.9 h 5.3 l -0.1,4 c 0,1.5 -1.5,2.2 -4.4,2.2 -2.9,0 -5.5,-1.2 -7.7,-3.7 -2.2,-2.5 -3.4,-6.1 -3.4,-10.8 0,-4.8 1.1,-8.3 3.3,-10.5 2.2,-2.3 5,-3.4 8.5,-3.4 1.5,0 3,0.2 4.6,0.7 1.6,0.5 2.6,0.9 3.2,1.4 0.5,0.4 1,0.6 1.5,0.6 0.5,0 1.3,-0.6 2.3,-1.7 1.1,-1.1 2,-2.8 2.9,-5.1 0.8,-2.3 1.3,-4.1 1.3,-5.3 0,-1.2 -0,-2.1 -0.1,-2.5 -1.2,-1.3 -3.4,-2.3 -6.6,-3.1 -3.2,-0.8 -6.8,-1.1 -10.7,-1.1 -8.7,0 -15.5,2.7 -20.5,8.2 -4.9,5.5 -7.4,12.6 -7.4,21.4 0,10.3 2.5,18.1 7.6,23.4 5,5.3 11.7,8 19.9,8 4.4,0 8.3,-0.4 11.8,-1.1 3.4,-0.8 5.7,-1.5 6.8,-2.3 l 0.3,-26.6 c 0,-1.5 -4.1,-2.2 -8.6,-2.3 z m 42.1,-12.4 c -2.7,0 -5,1.2 -6.8,3.7 -1.8,2.5 -2.8,6 -2.8,10.5 0,4.5 0.9,8 2.6,10.4 1.8,2.4 4.1,3.6 6.9,3.6 2.9,0 5.2,-1.2 7,-3.7 1.8,-2.4 2.7,-5.9 2.7,-10.4 0,-4.5 -0.9,-8 -2.8,-10.4 -1.8,-2.4 -4.1,-3.6 -6.8,-3.6 m -0,44.7 c -8,0 -14.4,-2.6 -19.4,-7.8 -5,-5.2 -7.5,-12.8 -7.5,-22.8 0,-10 2.5,-17.6 7.6,-22.7 5.1,-5.1 11.6,-7.7 19.6,-7.7 8,0 14.5,2.5 19.4,7.6 4.9,5.1 7.4,12.7 7.4,23 0,10.3 -2.5,17.9 -7.6,22.9 -5,5 -11.5,7.5 -19.5,7.5 m 51,-44.1 v 25.4 c 0,1.2 0.1,1.9 0.3,2.2 0.2,0.3 0.7,0.5 1.5,0.5 3.1,0 5.5,-1.2 7.1,-3.5 1.6,-2.3 2.4,-6.2 2.4,-11.6 0,-5.4 -0.8,-8.9 -2.5,-10.6 -1.7,-1.6 -4.3,-2.5 -7.9,-2.5 z m -16.3,39.4 v -50.9 c 0,-1.4 0.4,-2.5 1.1,-3.4 0.7,-0.8 1.6,-1.2 2.8,-1.2 h 14.2 c 9,0 15.8,2.3 20.5,6.8 4.7,4.5 7,11.7 7,21.4 0,20.8 -8.9,31.2 -26.7,31.2 h -14.5 c -2.9,0 -4.3,-1.3 -4.3,-3.9 m 78.3,-40 c -2.7,0 -5,1.2 -6.8,3.7 -1.8,2.5 -2.8,6 -2.8,10.5 0,4.5 0.9,8 2.6,10.4 1.8,2.4 4.1,3.6 6.9,3.6 2.9,0 5.2,-1.2 7,-3.7 1.8,-2.4 2.7,-5.9 2.7,-10.4 0,-4.5 -0.9,-8 -2.8,-10.4 -1.8,-2.4 -4.1,-3.6 -6.8,-3.6 m -0,44.7 c -8,0 -14.4,-2.6 -19.4,-7.8 -5,-5.2 -7.5,-12.8 -7.5,-22.8 0,-10 2.5,-17.6 7.6,-22.7 5.1,-5.1 11.6,-7.7 19.6,-7.7 8,0 14.5,2.5 19.4,7.6 4.9,5.1 7.4,12.7 7.4,23 0,10.3 -2.5,17.9 -7.6,22.9 -5,5 -11.5,7.5 -19.5,7.5 m 58.8,-2.1 c 0,1.1 -2.8,1.7 -8.4,1.7 -5.6,0 -8.4,-0.6 -8.4,-1.7 v -42.6 h -10.2 c -1,0 -1.6,-1.3 -2,-3.9 a 28.1,28.1 0 0 1 -0.3,-3.8 c 0,-1.3 0.1,-2.6 0.3,-3.8 0.4,-2.6 1.1,-3.9 2,-3.9 h 36.9 c 1,0 1.6,1.3 2,3.9 0.2,1.2 0.3,2.5 0.3,3.8 0,1.3 -0.1,2.6 -0.3,3.8 -0.4,2.6 -1.1,3.9 -2,3.9 h -9.9 z"
       id="godot_text" />
    <path
       fill="#e0e0e0"
       d="m 244,151.5 c -0.5,1 -1.3,1.8 -2.6,2.6 -1.3,0.8 -2.9,1.2 -4.8,1.2 -2.6,0 -4.6,-0.8 -6.2,-2.4 -1.6,-1.6 -2.3,-4 -2.3,-7 v -7.6 c 0,-3 0.7,-5.3 2.2,-6.9 1.5,-1.6 3.5,-2.4 5.9,-2.4 2.4,0 4.3,0.6 5.6,1.9 1.3,1.3 2,3 2.1,5.3 l -0,0.1 h -2 c -0.1,-1.7 -0.6,-3.1 -1.5,-4 -0.9,-0.9 -2.3,-1.4 -4.2,-1.4 -1.9,0 -3.3,0.6 -4.4,1.9 -1.1,1.3 -1.6,3.1 -1.6,5.5 v 7.7 c 0,2.5 0.6,4.4 1.7,5.7 1.2,1.3 2.7,1.9 4.7,1.9 1.4,0 2.6,-0.3 3.5,-0.8 0.9,-0.5 1.5,-1.1 1.8,-1.9 v -6.7 h -5.3 v -1.9 h 7.4 z m 9.8,2 c 1.2,0 2.2,-0.3 3.1,-1 0.9,-0.7 1.5,-1.5 1.9,-2.6 v -4.1 h -3.4 c -1.4,0 -2.6,0.4 -3.4,1.2 -0.9,0.8 -1.3,1.8 -1.3,3 0,1 0.3,1.8 0.8,2.5 0.5,0.6 1.3,1 2.3,1 m 5.4,1.5 a 49.6,49.6 0 0 1 -0.2,-1.6 10.9,10.9 0 0 1 -0.1,-1.3 7.4,7.4 0 0 1 -2.2,2.3 c -0.9,0.6 -1.9,0.9 -3.1,0.9 -1.6,0 -2.8,-0.5 -3.6,-1.5 -0.9,-1 -1.3,-2.3 -1.3,-4 0,-1.8 0.6,-3.2 1.9,-4.2 1.2,-1 2.9,-1.6 5,-1.6 h 3.3 v -2.3 c 0,-1.3 -0.3,-2.4 -1,-3.2 -0.7,-0.8 -1.6,-1.1 -2.9,-1.1 -1.1,0 -2.1,0.4 -2.8,1.1 -0.7,0.7 -1.1,1.6 -1.1,2.7 l -2,-0 -0,-0.1 c -0.1,-1.4 0.5,-2.7 1.6,-3.8 1.1,-1.1 2.6,-1.7 4.4,-1.7 1.8,0 3.2,0.5 4.3,1.6 1.1,1.1 1.6,2.6 1.6,4.6 v 9.3 c 0,0.7 0,1.3 0.1,2 a 12.4,12.4 0 0 0 0.3,1.9 z m 8.5,-19.1 0.2,3 c 0.5,-1.1 1.2,-1.9 2,-2.4 0.8,-0.6 1.8,-0.9 2.9,-0.9 1.1,0 2.1,0.3 2.9,1 0.8,0.7 1.4,1.7 1.7,3.1 0.5,-1.3 1.1,-2.3 2,-3 0.9,-0.7 1.9,-1.1 3.1,-1.1 1.7,0 3,0.7 3.9,2 0.9,1.4 1.4,3.4 1.4,6.2 v 11.1 h -2.1 v -11.1 c 0,-2.3 -0.3,-4 -0.9,-4.9 -0.6,-0.9 -1.5,-1.4 -2.7,-1.4 -1.2,0 -2.2,0.5 -2.9,1.6 -0.7,1.1 -1.1,2.4 -1.3,4 v 11.9 h -2.1 v -11.1 c 0,-2.3 -0.3,-3.9 -1,-4.9 -0.6,-1 -1.6,-1.5 -2.7,-1.5 -1.1,0 -2,0.3 -2.7,1 -0.7,0.7 -1.2,1.6 -1.4,2.8 v 13.7 h -2.1 v -19 z m 30.7,1.5 c -1.3,0 -2.4,0.6 -3.3,1.8 -0.9,1.2 -1.3,2.7 -1.3,4.5 h 8.8 v -0.8 c 0,-1.6 -0.4,-2.9 -1.1,-3.9 -0.7,-1 -1.8,-1.6 -3.1,-1.6 m 0.3,17.9 c -2,0 -3.7,-0.8 -5,-2.3 -1.3,-1.5 -1.9,-3.5 -1.9,-5.9 v -3.2 c 0,-2.4 0.7,-4.4 2,-6 1.3,-1.6 2.9,-2.4 4.7,-2.4 2,0 3.5,0.7 4.6,2.1 1.1,1.4 1.7,3.3 1.7,5.7 v 2.1 h -10.9 v 1.6 c 0,1.8 0.4,3.4 1.3,4.6 0.9,1.2 2.1,1.8 3.6,1.8 1,0 1.9,-0.2 2.7,-0.5 a 5.6,5.6 0 0 0 1.9,-1.6 l 0.9,1.5 c -0.6,0.7 -1.3,1.3 -2.2,1.8 -0.9,0.4 -2,0.7 -3.3,0.7 M 321.8,137.4 c -1.3,0 -2.4,0.6 -3.3,1.8 -0.8,1.2 -1.3,2.7 -1.3,4.5 h 8.8 v -0.8 c 0,-1.6 -0.4,-2.9 -1.1,-3.9 -0.7,-1 -1.8,-1.6 -3.1,-1.6 m 0.3,17.9 c -2,0 -3.7,-0.8 -5,-2.3 -1.3,-1.5 -2,-3.5 -2,-5.9 v -3.2 c 0,-2.4 0.7,-4.4 2,-6 1.3,-1.6 2.9,-2.4 4.7,-2.4 2,0 3.5,0.7 4.6,2.1 1.1,1.4 1.7,3.3 1.7,5.7 v 2.1 H 317.2 v 1.6 c 0,1.8 0.4,3.4 1.3,4.6 0.9,1.2 2.1,1.8 3.6,1.8 1,0 1.9,-0.2 2.7,-0.5 a 5.6,5.6 0 0 0 1.9,-1.6 l 0.9,1.5 c -0.6,0.7 -1.3,1.3 -2.2,1.8 -0.9,0.4 -2,0.7 -3.3,0.7 m 11.6,-19.4 0.2,3.1 c 0.5,-1.1 1.2,-2 2,-2.6 0.8,-0.6 1.8,-0.9 2.9,-0.9 1.7,0 3,0.6 3.9,1.9 0.9,1.3 1.4,3.2 1.4,5.9 v 11.6 H 342 V 143.4 c 0,-2.2 -0.3,-3.7 -0.9,-4.6 -0.6,-0.9 -1.6,-1.3 -2.8,-1.3 -1.1,0 -2,0.4 -2.7,1.1 -0.7,0.7 -1.3,1.6 -1.6,2.8 v 13.6 H 331.8 V 135.9 Z m 16.6,11.2 c 0,1.9 0.4,3.5 1.1,4.6 0.7,1.2 1.8,1.7 3.3,1.7 1,0 1.9,-0.3 2.6,-0.8 0.7,-0.6 1.3,-1.3 1.7,-2.3 v -9.4 c -0.4,-1 -0.9,-1.8 -1.6,-2.5 -0.7,-0.6 -1.6,-0.9 -2.6,-0.9 -1.5,0 -2.6,0.6 -3.4,1.9 -0.8,1.3 -1.1,3 -1.1,5.1 z m -2.1,-2.6 c 0,-2.7 0.5,-4.9 1.6,-6.5 1.1,-1.6 2.6,-2.4 4.5,-2.4 1.1,0 2,0.3 2.8,0.8 0.8,0.5 1.5,1.3 2,2.2 l 0.2,-2.6 h 1.8 v 19 c 0,2.4 -0.6,4.3 -1.7,5.7 -1.1,1.3 -2.7,2 -4.8,2 -0.8,0 -1.6,-0.1 -2.4,-0.3 -0.9,-0.2 -1.6,-0.5 -2.3,-0.9 l 0.6,-1.9 a 7.1,7.1 0 0 0 1.9,0.9 7.6,7.6 0 0 0 2.2,0.3 c 1.5,0 2.6,-0.5 3.4,-1.5 0.7,-1 1.1,-2.4 1.1,-4.3 v -2.3 c -0.5,0.9 -1.2,1.5 -2,2 -0.8,0.5 -1.7,0.7 -2.7,0.7 -1.9,0 -3.4,-0.7 -4.5,-2.2 -1.1,-1.5 -1.6,-3.5 -1.6,-6 z m 20.1,10.5 h -2.1 V 135.9 h 2.1 z m 0,-24.5 h -2.1 v -3 h 2.1 z m 6.9,5.4 0.2,3.1 c 0.5,-1.1 1.2,-2 2,-2.6 0.8,-0.6 1.8,-0.9 2.9,-0.9 1.7,0 3,0.6 3.9,1.9 0.9,1.3 1.4,3.2 1.4,5.9 v 11.6 h -2.1 V 143.4 c 0,-2.2 -0.3,-3.7 -0.9,-4.6 -0.6,-0.9 -1.6,-1.3 -2.8,-1.3 -1.1,0 -2,0.4 -2.7,1.1 -0.7,0.7 -1.3,1.6 -1.6,2.8 v 13.6 h -2.1 V 135.9 Z m 21,1.5 c -1.3,0 -2.4,0.6 -3.3,1.8 -0.8,1.2 -1.3,2.7 -1.3,4.5 h 8.8 v -0.8 c 0,-1.6 -0.4,-2.9 -1.1,-3.9 -0.7,-1 -1.8,-1.6 -3.1,-1.6 m 0.3,17.9 c -2.1,0 -3.7,-0.8 -5,-2.3 -1.3,-1.5 -2,-3.5 -2,-5.9 v -3.2 c 0,-2.4 0.7,-4.4 2,-6 1.3,-1.6 2.9,-2.4 4.7,-2.4 2,0 3.5,0.7 4.6,2.1 1.1,1.4 1.6,3.3 1.6,5.7 v 2.1 h -10.9 v 1.6 c 0,1.8 0.4,3.4 1.3,4.6 0.9,1.2 2.1,1.8 3.6,1.8 1,0 1.9,-0.2 2.7,-0.5 a 5.6,5.6 0 0 0 1.9,-1.6 l 0.9,1.5 c -0.6,0.7 -1.3,1.3 -2.2,1.8 -0.9,0.4 -2,0.7 -3.3,0.7"
       id="game_engine_text" />
    <circle
       cx="70.5"
       cy="96.6"
       r="10.8"
       id="pupil_l"
       fill="#414042" />
    <circle
       cx="144.3"
       cy="96.6"
       r="10.8"
       id="pupil_r"
       fill="#414042" />
  </g>
</svg>
