<?xml version="1.0" encoding="UTF-8" standalone="no"?>
<svg
   height="16"
   viewBox="0 0 16 16"
   width="16"
   version="1.1"
   id="application_icon"
   sodipodi:docname="godot-icon.svg"
   inkscape:version="1.3 (0e150ed6c4, 2023-07-21)"
   xmlns:inkscape="http://www.inkscape.org/namespaces/inkscape"
   xmlns:sodipodi="http://sodipodi.sourceforge.net/DTD/sodipodi-0.dtd"
   xmlns="http://www.w3.org/2000/svg"
   xmlns:svg="http://www.w3.org/2000/svg"
   xmlns:rdf="http://www.w3.org/1999/02/22-rdf-syntax-ns#"
   xmlns:cc="http://creativecommons.org/ns#"
   xmlns:dc="http://purl.org/dc/elements/1.1/">
  <title
     id="title">Godot Engine Icon</title>
  <metadata
     id="metadata">
    <rdf:RDF>
      <cc:Work
         rdf:about="">
        <dc:title>Godot Engine Icon</dc:title>
        <dc:date>2023-11-19</dc:date>
        <dc:rights>
          <cc:Agent>
            <dc:title>Copyright (c) 2017 Andrea Calabró</dc:title>
          </cc:Agent>
        </dc:rights>
        <dc:creator>
          <cc:Agent>
            <dc:title>Andrea Calabró</dc:title>
          </cc:Agent>
        </dc:creator>
        <dc:publisher>
          <cc:Agent>
            <dc:title>Godot Engine</dc:title>
          </cc:Agent>
        </dc:publisher>
        <dc:identifier>godot.application.icon</dc:identifier>
        <dc:source>https://github.com/godotengine/godot</dc:source>
        <dc:language>en</dc:language>
        <dc:subject>
          <rdf:Bag>
            <rdf:li>application</rdf:li>
            <rdf:li>icon</rdf:li>
            <rdf:li>logo</rdf:li>
            <rdf:li>godot</rdf:li>
          </rdf:Bag>
        </dc:subject>
        <cc:license
           rdf:resource="http://creativecommons.org/licenses/by/4.0/" />
        <dc:description>Icon of Godot Engine showing a blue robot head. Recreation of https://github.com/godotengine/godot/blob/master/editor/icons/Godot.svg.</dc:description>
        <dc:contributor>
          <cc:Agent>
            <dc:title>Andrea Calabró&#10;David Krummenacher</dc:title>
          </cc:Agent>
        </dc:contributor>
      </cc:Work>
      <cc:License
         rdf:about="http://creativecommons.org/licenses/by/4.0/">
        <cc:permits
           rdf:resource="http://creativecommons.org/ns#Reproduction" />
        <cc:permits
           rdf:resource="http://creativecommons.org/ns#Distribution" />
        <cc:requires
           rdf:resource="http://creativecommons.org/ns#Notice" />
        <cc:requires
           rdf:resource="http://creativecommons.org/ns#Attribution" />
        <cc:permits
           rdf:resource="http://creativecommons.org/ns#DerivativeWorks" />
      </cc:License>
    </rdf:RDF>
  </metadata>
  <sodipodi:namedview
     id="base_view"
     pagecolor="#595959"
     bordercolor="#333333"
     borderopacity="1"
     inkscape:showpageshadow="0"
     inkscape:pageopacity="0"
     inkscape:pagecheckerboard="0"
     inkscape:deskcolor="#404040"
     inkscape:zoom="45.254834"
     inkscape:cx="12.562194"
     inkscape:cy="11.578874"
     inkscape:window-width="1368"
     inkscape:window-height="850"
     inkscape:window-x="-6"
     inkscape:window-y="-6"
     inkscape:window-maximized="1"
     inkscape:current-layer="base_layer"
     showgrid="true">
    <inkscape:grid
       id="base_grid"
       units="px"
       originx="0"
       originy="0"
       spacingx="1"
       spacingy="1"
       empcolor="#999999"
       empopacity="0.30196078"
       color="#999999"
       opacity="0.14901961"
       empspacing="5"
       dotted="false"
       gridanglex="30"
       gridanglez="30"
       visible="true" />
  </sodipodi:namedview>
  <defs
     id="base_definitions" />
  <g
     inkscape:groupmode="layer"
     id="base_layer"
     inkscape:label="Base Layer">
    <path
       id="head"
       d="M 6.52,1.2 C 5.85,1.35 5.21,1.57 4.59,1.86 4.6,2.39 4.65,2.92 4.72,3.45 4.22,3.73 3.76,4.07 3.34,4.45 2.94,4.17 2.51,3.93 2.06,3.72 1.56,4.23 1.13,4.79 0.77,5.41 1.04,5.84 1.33,6.27 1.64,6.67 v 4.97 c 0,4.31 12.7,4.31 12.7,0 L 14.36,6.67 C 14.67,6.27 14.96,5.84 15.23,5.41 14.87,4.79 14.44,4.23 13.94,3.72 13.49,3.93 13.06,4.17 12.66,4.45 12.24,4.07 11.78,3.73 11.28,3.45 11.35,2.92 11.4,2.39 11.41,1.86 10.79,1.57 10.15,1.35 9.48,1.2 9.21,1.65 8.97,2.11 8.77,2.59 8.26,2.52 7.74,2.52 7.23,2.59 7.03,2.11 6.79,1.65 6.52,1.2 Z"
       fill="#478cbf" />
    <circle
       id="eye_l"
       cx="4.67"
       cy="8.22"
       fill="#ffffff"
       r="1.41" />
    <circle
       id="eye_r"
       cx="11.33"
       cy="8.22"
       fill="#ffffff"
       r="1.41" />
    <path
       d="m 7.55,9.38 c 0.05,0.53 0.86,0.53 0.91,0 V 8.03 C 8.41,7.5 7.59,7.5 7.55,8.03 Z"
       fill="#ffffff"
       id="nose" />
    <path
       id="mouth"
       d="m 1.64,10.52 v 0.51 l 2.11,0.19 0.08,1.08 c 0.02,0.1 0.09,0.17 0.22,0.2 l 2.53,0.17 c 0.12,0 0.21,-0.06 0.25,-0.17 l 0.16,-1.02 h 2.03 l 0.15,1.02 c 0.04,0.11 0.13,0.17 0.25,0.17 l 2.53,-0.17 c 0.12,-0.03 0.2,-0.1 0.22,-0.2 l 0.08,-1.08 2.09,-0.19 v -0.52 l -2.36,0.22 c -0.13,0.01 -0.2,0.08 -0.23,0.22 L 11.69,12 9.62,12.16 9.5,11.2 C 9.48,11.09 9.4,11.01 9.27,10.97 H 6.73 C 6.6,11.01 6.52,11.09 6.5,11.2 L 6.38,12.16 4.31,12 4.25,10.95 C 4.22,10.82 4.14,10.74 4.02,10.73 Z"
       fill="#ffffff" />
    <circle
       id="pupil_l"
       cx="4.8"
       cy="8.31"
       r="0.94"
       fill="#414042" />
    <circle
       id="pupil_r"
       cx="11.2"
       cy="8.31"
       r="0.94"
       fill="#414042" />
  </g>
</svg>
