<?xml version="1.0" encoding="UTF-8" standalone="no"?>
<!-- Created with Inkscape (http://www.inkscape.org/) -->

<svg
   width="32"
   height="32"
   viewBox="0 0 32 32"
   version="1.1"
   id="svg5"
   inkscape:version="1.3 (0e150ed6c4, 2023-07-21)"
   sodipodi:docname="gonzago-icon-medium.svg"
   inkscape:export-filename="icon16x16.png"
   inkscape:export-xdpi="48"
   inkscape:export-ydpi="48"
   xmlns:inkscape="http://www.inkscape.org/namespaces/inkscape"
   xmlns:sodipodi="http://sodipodi.sourceforge.net/DTD/sodipodi-0.dtd"
   xmlns="http://www.w3.org/2000/svg"
   xmlns:svg="http://www.w3.org/2000/svg">
  <sodipodi:namedview
     id="namedview7"
     pagecolor="#ffffff"
     bordercolor="#999999"
     borderopacity="1"
     inkscape:pageshadow="0"
     inkscape:pageopacity="0"
     inkscape:pagecheckerboard="false"
     inkscape:document-units="px"
     showgrid="true"
     units="px"
     width="16px"
     viewbox-height="16"
     inkscape:zoom="16"
     inkscape:cx="17.8125"
     inkscape:cy="15.9375"
     inkscape:window-width="1368"
     inkscape:window-height="850"
     inkscape:window-x="-6"
     inkscape:window-y="-6"
     inkscape:window-maximized="1"
     inkscape:current-layer="layer1"
     showborder="true"
     inkscape:snap-grids="true"
     inkscape:showpageshadow="0"
     inkscape:deskcolor="#d1d1d1">
    <inkscape:grid
       type="xygrid"
       id="grid902"
       dotted="true"
       empspacing="4"
       originx="0"
       originy="0"
       spacingy="1"
       spacingx="1"
       units="px"
       visible="true" />
  </sodipodi:namedview>
  <defs
     id="defs2" />
  <g
     inkscape:label="Ebene 1"
     inkscape:groupmode="layer"
     id="layer1">
    <path
       d="M 4,0.9 V 18 c 0,2.3 1.3,4.1 3,5.4 -0.1,1.5 0.4,2.7 1.4,3.7 0.8,1.1 2,1.4 3.1,1.4 h 9 c 1.1,0 2.3,-0.3 3.1,-1.4 1.2,-0.9 1.4,-2.3 1.4,-3.7 1.7,-1.3 3,-3.1 3,-5.4 V 0.9 L 20.8,5.3 16,1.2 11.2,5.3 Z"
       id="gonzago-outline"
       fill="#fff7f8" />
    <path
       d="M 16,3.15 11.35,7.2 5.5,3.6 V 18 c 0,2.1 1.2,3.75 3,4.8 V 24 c 0,0.75 0.3,1.65 0.9,2.1 0.45,0.6 1.35,0.9 2.1,0.9 h 9 c 0.75,0 1.65,-0.3 2.1,-0.9 0.6,-0.45 0.9,-1.35 0.9,-2.1 v -1.2 c 1.8,-1.05 3,-2.7 3,-4.8 V 3.6 l -5.85,3.6 z"
       id="gonzago-border"
       fill="#2d2523" />
    <path
       d="M 16,5.1 20.5,9 25,6.3 v 7.2 H 7 V 6.3 L 11.5,9 Z"
       id="gonzago_crown"
       fill="#ffda45" />
    <path
       id="gonzago_base"
       d="m 7,15 v 3 c 0,1.95 1.2,3.6 3,4.2 V 24 c 0,0.9 0.6,1.5 1.5,1.5 0.9,0 1.5,-0.6 1.5,-1.5 0,0.9 0.6,1.5 1.5,1.5 0.9,0 1.5,-0.6 1.5,-1.5 0,0.9 0.6,1.5 1.5,1.5 0.9,0 1.5,-0.6 1.5,-1.5 0,0.9 0.6,1.5 1.5,1.5 0.9,0 1.5,-0.6 1.5,-1.5 v -1.8 c 1.8,-0.6 3,-2.25 3,-4.2 v -3 z"
       fill="#fff7f8" />
    <path
       id="gonzago_face"
       d="m 8.8,18 c 0,1.65 1.35,3 3,3 1.65,0 3,-1.35 3,-3 h -1.5 c 0,0.9 -0.6,1.5 -1.5,1.5 -0.9,0 -1.5,-0.6 -1.5,-1.5 z m 8.4,0 c 0,1.65 1.35,3 3,3 1.65,0 3,-1.35 3,-3 h -1.5 c 0,0.9 -0.6,1.5 -1.5,1.5 -0.9,0 -1.5,-0.6 -1.5,-1.5 z m -1.2,1.5 -1.5,3 1.5,-0.75 1.5,0.75 z"
       fill="#2d2523" />
  </g>
</svg>
