<?xml version="1.0" encoding="UTF-8" standalone="no"?>
<!-- Created with Inkscape (http://www.inkscape.org/) -->

<svg
   width="16"
   height="16"
   viewBox="0 0 16 16"
   version="1.1"
   id="application_icon"
   inkscape:version="1.3 (0e150ed6c4, 2023-07-21)"
   sodipodi:docname="gonzago-icon-small.svg"
   inkscape:export-filename="icon16x16.png"
   inkscape:export-xdpi="96.480339"
   inkscape:export-ydpi="96.480339"
   xmlns:inkscape="http://www.inkscape.org/namespaces/inkscape"
   xmlns:sodipodi="http://sodipodi.sourceforge.net/DTD/sodipodi-0.dtd"
   xmlns="http://www.w3.org/2000/svg"
   xmlns:svg="http://www.w3.org/2000/svg"
   xmlns:rdf="http://www.w3.org/1999/02/22-rdf-syntax-ns#"
   xmlns:cc="http://creativecommons.org/ns#"
   xmlns:dc="http://purl.org/dc/elements/1.1/">
  <title
     id="title1">Gonzago Framework Icon</title>
  <sodipodi:namedview
     id="namedview7"
     pagecolor="#ffffff"
     bordercolor="#999999"
     borderopacity="1"
     inkscape:pageshadow="0"
     inkscape:pageopacity="0"
     inkscape:pagecheckerboard="false"
     inkscape:document-units="px"
     showgrid="false"
     units="px"
     width="16px"
     viewbox-height="16"
     inkscape:zoom="32"
     inkscape:cx="8.390625"
     inkscape:cy="7.84375"
     inkscape:window-width="1368"
     inkscape:window-height="850"
     inkscape:window-x="-6"
     inkscape:window-y="-6"
     inkscape:window-maximized="1"
     inkscape:current-layer="layer1"
     showborder="true"
     inkscape:snap-grids="true"
     inkscape:showpageshadow="0"
     inkscape:deskcolor="#d1d1d1">
    <inkscape:grid
       type="xygrid"
       id="grid902"
       dotted="true"
       empspacing="4"
       originx="0"
       originy="0"
       spacingy="1"
       spacingx="1"
       units="px"
       visible="false" />
  </sodipodi:namedview>
  <defs
     id="defs2" />
  <g
     inkscape:label="Ebene 1"
     inkscape:groupmode="layer"
     id="layer1">
    <path
       d="M 8,0.1 4.9,2.8 1,0.4 V 10 c 0,1.4 0.8,2.5 2,3.2 V 14 c 0,0.5 0.2,1.1 0.6,1.4 C 3.9,15.8 4.5,16 5,16 h 6 c 0.5,0 1.1,-0.2 1.4,-0.6 C 12.8,15.1 13,14.5 13,14 V 13.2 C 14.2,12.5 15,11.4 15,10 V 0.4 L 11.1,2.8 Z"
       id="gonzago-border"
       fill="#2d2523" />
    <path
       d="M 8,1.4 11,4 14,2.2 V 7 H 2 V 2.2 L 5,4 Z"
       id="gonzago_crown"
       fill="#ffda45" />
    <path
       id="gonzago_base"
       d="m 2,8 v 2 c 0,1.3 0.8,2.4 2,2.8 V 14 c 0,0.6 0.4,1 1,1 h 6 c 0.6,0 1,-0.4 1,-1 v -1.2 c 1.2,-0.4 2,-1.5 2,-2.8 V 8 Z"
       fill="#fff7f8" />
    <path
       d="m 3.2,10 h 4 c 0,1.1 -0.9,2 -2,2 -1.1,0 -2,-0.9 -2,-2 z m 5.6,0 h 4 c 0,1.1 -0.9,2 -2,2 -1.1,0 -2,-0.9 -2,-2 z M 8,11 9,13 H 7 Z"
       id="gonzago_face"
       fill="#2d2523" />
  </g>
  <metadata
     id="metadata1">
    <rdf:RDF>
      <cc:Work
         rdf:about="">
        <dc:title>Gonzago Framework Icon</dc:title>
        <dc:date>2023-11-19</dc:date>
        <dc:creator>
          <cc:Agent>
            <dc:title>David Krummenacher</dc:title>
          </cc:Agent>
        </dc:creator>
        <dc:rights>
          <cc:Agent>
            <dc:title>Copyright (c) 2023 David Krummenacher and Gonzago Framework contributors</dc:title>
          </cc:Agent>
        </dc:rights>
        <dc:publisher>
          <cc:Agent>
            <dc:title>Gonzago Framework</dc:title>
          </cc:Agent>
        </dc:publisher>
        <dc:identifier>gonzago.application.icon_small</dc:identifier>
        <dc:source>https://github.com/godot-gonzago</dc:source>
        <dc:language>en</dc:language>
        <dc:subject>
          <rdf:Bag>
            <rdf:li>application</rdf:li>
            <rdf:li>icon</rdf:li>
            <rdf:li>logo</rdf:li>
            <rdf:li>small</rdf:li>
            <rdf:li>gonzago</rdf:li>
          </rdf:Bag>
        </dc:subject>
        <dc:description>A skull with a crown in reference to The Murder of Gonzago, a play within The Tragedy of Hamlet, Prince of Denmark.</dc:description>
        <dc:contributor>
          <cc:Agent>
            <dc:title>David Krummenacher</dc:title>
          </cc:Agent>
        </dc:contributor>
      </cc:Work>
    </rdf:RDF>
  </metadata>
</svg>
