<?xml version="1.0" encoding="UTF-8" standalone="no"?>
<!-- Created with Inkscape (http://www.inkscape.org/) -->

<svg
   width="32"
   height="32"
   viewBox="0 0 32 32"
   version="1.1"
   id="application_icon"
   inkscape:version="1.3 (0e150ed6c4, 2023-07-21)"
   sodipodi:docname="gonzago-icon-medium.svg"
   inkscape:export-filename="icon16x16.png"
   inkscape:export-xdpi="48"
   inkscape:export-ydpi="48"
   xmlns:inkscape="http://www.inkscape.org/namespaces/inkscape"
   xmlns:sodipodi="http://sodipodi.sourceforge.net/DTD/sodipodi-0.dtd"
   xmlns="http://www.w3.org/2000/svg"
   xmlns:svg="http://www.w3.org/2000/svg"
   xmlns:rdf="http://www.w3.org/1999/02/22-rdf-syntax-ns#"
   xmlns:cc="http://creativecommons.org/ns#"
   xmlns:dc="http://purl.org/dc/elements/1.1/">
  <title
     id="title">Gonzago Framework Icon</title>
  <metadata
     id="metadata">
    <rdf:RDF>
      <cc:Work
         rdf:about="">
        <dc:title>Gonzago Framework Icon</dc:title>
        <dc:date>2023-11-19</dc:date>
        <dc:rights>
          <cc:Agent>
            <dc:title>Copyright (c) 2023 David Krummenacher and Gonzago Framework contributors</dc:title>
          </cc:Agent>
        </dc:rights>
        <dc:creator>
          <cc:Agent>
            <dc:title>David Krummenacher</dc:title>
          </cc:Agent>
        </dc:creator>
        <dc:publisher>
          <cc:Agent>
            <dc:title>Gonzago Framework</dc:title>
          </cc:Agent>
        </dc:publisher>
        <dc:identifier>gonzago.application.icon_medium</dc:identifier>
        <dc:source>https://github.com/godot-gonzago</dc:source>
        <dc:language>en</dc:language>
        <dc:subject>
          <rdf:Bag>
            <rdf:li>application</rdf:li>
            <rdf:li>icon</rdf:li>
            <rdf:li>logo</rdf:li>
            <rdf:li>medium</rdf:li>
            <rdf:li>gonzago</rdf:li>
          </rdf:Bag>
        </dc:subject>
        <dc:description>A skull with a crown in reference to The Murder of Gonzago, a play within The Tragedy of Hamlet, Prince of Denmark.</dc:description>
        <dc:contributor>
          <cc:Agent>
            <dc:title>David Krummenacher</dc:title>
          </cc:Agent>
        </dc:contributor>
      </cc:Work>
    </rdf:RDF>
  </metadata>
  <sodipodi:namedview
     id="base_view"
     pagecolor="#595959"
     bordercolor="#333333"
     borderopacity="1"
     inkscape:pageshadow="0"
     inkscape:pageopacity="0"
     inkscape:pagecheckerboard="false"
     inkscape:document-units="px"
     showgrid="true"
     units="px"
     width="16px"
     viewbox-height="16"
     inkscape:zoom="16"
     inkscape:cx="18.09375"
     inkscape:cy="15.9375"
     inkscape:window-width="1368"
     inkscape:window-height="850"
     inkscape:window-x="-6"
     inkscape:window-y="-6"
     inkscape:window-maximized="1"
     inkscape:current-layer="base_layer"
     showborder="true"
     inkscape:snap-grids="true"
     inkscape:showpageshadow="0"
     inkscape:deskcolor="#404040">
    <inkscape:grid
       type="xygrid"
       id="base_grid"
       dotted="false"
       empspacing="4"
       originx="0"
       originy="0"
       spacingy="1"
       spacingx="1"
       units="px"
       visible="true"
       color="#999999"
       opacity="0.14901961"
       empcolor="#999999"
       empopacity="0.30196078" />
  </sodipodi:namedview>
  <defs
     id="base_definitions" />
  <g
     inkscape:label="Base Layer"
     inkscape:groupmode="layer"
     id="base_layer">
    <path
       d="M 4,1.9 V 19 c 0,2.3 1.3,4.1 3,5.4 -0.1,1.5 0.4,2.7 1.4,3.7 0.8,1.1 2,1.4 3.1,1.4 h 9 c 1.1,0 2.3,-0.3 3.1,-1.4 1.2,-0.9 1.4,-2.3 1.4,-3.7 1.7,-1.3 3,-3.1 3,-5.4 V 1.9 L 20.8,6.3 16,2.2 11.2,6.3 Z"
       id="gonzago-outline"
       fill="#fff7f8" />
    <path
       d="M 16,4.15 11.35,8.2 5.5,4.6 V 19 c 0,2.1 1.2,3.75 3,4.8 V 25 c 0,0.75 0.3,1.65 0.9,2.1 0.45,0.6 1.35,0.9 2.1,0.9 h 9 c 0.75,0 1.65,-0.3 2.1,-0.9 0.6,-0.45 0.9,-1.35 0.9,-2.1 v -1.2 c 1.8,-1.05 3,-2.7 3,-4.8 V 4.6 l -5.85,3.6 z"
       id="gonzago-border"
       fill="#2d2523" />
    <path
       d="M 16,6.1 20.5,10 25,7.3 v 7.2 H 7 V 7.3 l 4.5,2.7 z"
       id="gonzago_crown"
       fill="#ffda45" />
    <path
       id="gonzago_base"
       d="m 7,16 v 3 c 0,1.95 1.2,3.6 3,4.2 V 25 c 0,0.9 0.6,1.5 1.5,1.5 0.9,0 1.5,-0.6 1.5,-1.5 0,0.9 0.6,1.5 1.5,1.5 0.9,0 1.5,-0.6 1.5,-1.5 0,0.9 0.6,1.5 1.5,1.5 0.9,0 1.5,-0.6 1.5,-1.5 0,0.9 0.6,1.5 1.5,1.5 0.9,0 1.5,-0.6 1.5,-1.5 v -1.8 c 1.8,-0.6 3,-2.25 3,-4.2 v -3 z"
       fill="#fff7f8" />
    <path
       id="gonzago_face"
       d="m 8.8,19 c 0,1.65 1.35,3 3,3 1.65,0 3,-1.35 3,-3 z m 8.4,0 c 0,1.65 1.35,3 3,3 1.65,0 3,-1.35 3,-3 z m -1.2,1.5 -1.5,3 1.5,-0.25 1.5,0.25 z"
       fill="#2d2523" />
    <path
       d="m 13.3,19 c 0,0.9 -0.6,1.5 -1.5,1.5 -0.9,0 -1.5,-0.6 -1.5,-1.5 z m 8.4,0 c 0,0.9 -0.6,1.5 -1.5,1.5 -0.9,0 -1.5,-0.6 -1.5,-1.5 z"
       id="gonzago_eyes"
       fill="#b2acad" />
  </g>
</svg>
