<?xml version="1.0" encoding="UTF-8" standalone="no"?>
<!-- Created with Inkscape (http://www.inkscape.org/) -->

<svg
   width="256"
   height="256"
   viewBox="0 0 256 256"
   version="1.1"
   id="application_logo"
   inkscape:version="1.3 (0e150ed6c4, 2023-07-21)"
   sodipodi:docname="gonzago-logo-mono-dark.svg"
   xml:space="preserve"
   inkscape:export-filename="github.png"
   inkscape:export-xdpi="136.53334"
   inkscape:export-ydpi="136.53334"
   xmlns:inkscape="http://www.inkscape.org/namespaces/inkscape"
   xmlns:sodipodi="http://sodipodi.sourceforge.net/DTD/sodipodi-0.dtd"
   xmlns="http://www.w3.org/2000/svg"
   xmlns:svg="http://www.w3.org/2000/svg"
   xmlns:rdf="http://www.w3.org/1999/02/22-rdf-syntax-ns#"
   xmlns:cc="http://creativecommons.org/ns#"
   xmlns:dc="http://purl.org/dc/elements/1.1/"><title
     id="title">Gonzago Framework Logo</title><metadata
     id="metadata"><rdf:RDF><cc:Work
         rdf:about=""><dc:title>Gonzago Framework Logo</dc:title><dc:date>2023-11-19</dc:date><dc:rights><cc:Agent><dc:title>Copyright (c) 2023 David Krummenacher and Gonzago Framework contributors</dc:title></cc:Agent></dc:rights><dc:creator><cc:Agent><dc:title>David Krummenacher</dc:title></cc:Agent></dc:creator><dc:publisher><cc:Agent><dc:title>Gonzago Framework</dc:title></cc:Agent></dc:publisher><dc:source>https://github.com/godot-gonzago</dc:source><dc:identifier>gonzago.application.logo</dc:identifier><dc:language>en</dc:language><dc:subject><rdf:Bag><rdf:li>application</rdf:li><rdf:li>logo</rdf:li><rdf:li>gonzago</rdf:li></rdf:Bag></dc:subject><dc:description>The Gonzago Framework logo showing a skull with a crown in reference to The Murder of Gonzago, a play within The Tragedy of Hamlet, Prince of Denmark. It is next to the Gonzago Framework word mark.</dc:description><dc:contributor><cc:Agent><dc:title>David Krummenacher</dc:title></cc:Agent></dc:contributor></cc:Work></rdf:RDF></metadata><sodipodi:namedview
     id="base_view"
     pagecolor="#595959"
     bordercolor="#333333"
     borderopacity="1"
     inkscape:pageshadow="0"
     inkscape:pageopacity="0"
     inkscape:pagecheckerboard="false"
     inkscape:document-units="px"
     showgrid="true"
     units="px"
     width="16px"
     viewbox-height="16"
     inkscape:zoom="1.6277345"
     inkscape:cx="99.217655"
     inkscape:cy="137.00023"
     inkscape:window-width="1368"
     inkscape:window-height="850"
     inkscape:window-x="-6"
     inkscape:window-y="-6"
     inkscape:window-maximized="1"
     inkscape:current-layer="base_layer"
     showborder="true"
     inkscape:snap-grids="true"
     inkscape:showpageshadow="0"
     inkscape:deskcolor="#404040"><inkscape:grid
       type="xygrid"
       id="base_grid"
       dotted="false"
       empspacing="4"
       originx="52"
       originy="0"
       spacingy="1"
       spacingx="1"
       units="px"
       visible="true"
       color="#999999"
       opacity="0.14901961"
       empcolor="#999999"
       empopacity="0.30196078" /></sodipodi:namedview><defs
     id="base_definitions" /><g
     inkscape:label="Base Layer"
     inkscape:groupmode="layer"
     id="base_layer"><path
       id="gonzago_border"
       d="M 126 21.9 L 98.1 46.2 L 63 24.6 L 63 111 C 63 123.6 70.2 133.5 81 139.8 C 81 144.2 80.7 148.6 82 152.9 L 72.2 145.5 L 72.2 170.2 C 58.9 170.7 45.7 171 32.4 170.1 L 32.1 170.1 L 31.8 170.1 C 19.9 170.1 9.7 179.1 9.7 193.3 C 9.7 202.1 14 212.7 26.8 215.9 L 27.9 232.2 C 37.1 232.5 46.3 232.5 54 226.6 C 58.1 223.2 61.6 218.7 62.5 212.9 L 100.4 212.9 L 100.4 205.3 L 107.8 210.3 L 96 232.4 L 157 232.4 L 157 214.5 L 187.2 214.5 L 188.4 232.1 C 197.6 232.4 206.8 232.4 214.5 226.5 C 218.8 222.9 221.3 217.5 222.1 211.4 C 223.9 211.9 225.7 212.2 227.5 212.2 C 238.5 212.2 247.8 204.1 247.8 191 C 247.8 177 237.8 169.8 227.5 169.8 C 216 170.8 204.4 170.8 192.9 170 C 184.5 170 179.7 173.4 176.7 176.4 L 168.2 156.8 C 171.5 151.7 171 145.6 171 139.8 C 181.8 133.5 189 123.6 189 111 L 189 24.6 L 153.9 46.2 L 126 21.9 z M 126 33.6 L 153 57 L 180 40.8 L 180 84 L 72 84 L 72 40.8 L 99 57 L 126 33.6 z M 72 93 L 180 93 L 180 111 C 180 122.7 172.8 132.6 162 136.2 L 162 147 C 162 152.4 158.4 156 153 156 C 147.6 156 144 152.4 144 147 C 144 152.4 140.4 156 135 156 C 129.6 156 126 152.4 126 147 C 126 152.4 122.4 156 117 156 C 111.6 156 108 152.4 108 147 C 108 152.4 104.4 156 99 156 C 93.6 156 90 152.4 90 147 L 90 136.2 C 79.2 132.6 72 122.7 72 111 L 72 93 z M 82.8 111 C 82.8 120.9 90.9 129 100.8 129 C 110.7 129 118.8 120.9 118.8 111 L 109.8 111 C 109.8 116.4 106.2 120 100.8 120 C 95.4 120 91.8 116.4 91.8 111 L 82.8 111 z M 133.2 111 C 133.2 120.9 141.3 129 151.2 129 C 161.1 129 169.2 120.9 169.2 111 L 160.2 111 C 160.2 116.4 156.6 120 151.2 120 C 145.8 120 142.2 116.4 142.2 111 L 133.2 111 z M 126 120 L 117 138 L 126 133.5 L 135 138 L 126 120 z M 81.2 163.6 L 106.9 183 L 106.9 171.5 L 117.1 171.5 L 117.1 205.8 L 91.4 188.4 L 91.4 203.9 L 81.2 203.9 L 81.2 163.6 z M 161.3 163.6 L 179.7 205.5 L 163.9 205.5 L 160.8 198.1 L 157.5 205.5 L 142.9 205.5 L 161.3 163.6 z M 227.5 178.8 C 234.7 178.8 238.8 183.8 238.8 191 C 238.8 198.3 234.5 203.2 227.5 203.2 C 220.7 203.2 216.2 198.3 216.2 191 C 216.2 183.8 220.7 178.8 227.5 178.8 z M 120.6 178.9 L 150.6 178.9 L 132.3 212.9 L 148 212.9 L 148 223.4 L 111 223.4 L 129 189.9 L 120.6 189.9 L 120.6 178.9 z M 192.3 179 C 199.4 179.4 206.4 179.9 213.4 179.6 L 213.4 207.4 C 213.4 219 206.4 223.1 196.8 223.1 L 196.2 213.8 C 199.9 213.8 202 211.4 202 207.4 L 192.3 207.4 C 185.9 207.4 179.2 203 179.2 193.2 C 179.2 183.4 185.9 179 192.3 179 z M 31.8 179.1 C 38.9 179.5 45.9 180 52.9 179.7 L 52.9 207.5 C 52.9 219.1 45.9 223.2 36.3 223.2 L 35.7 213.9 C 39.4 213.9 41.5 211.5 41.5 207.5 L 31.8 207.5 C 25.4 207.5 18.7 203.1 18.7 193.3 C 18.7 183.5 25.4 179.1 31.8 179.1 z M 67.1 179.6 C 74.3 179.6 78.4 184.6 78.4 191.8 C 78.4 199 74 204 67.1 204 C 60.2 204 55.8 199 55.8 191.8 C 55.8 184.6 60.2 179.6 67.1 179.6 z"
       fill="#000000" /></g></svg>
