<?xml version="1.0" encoding="UTF-8" standalone="no"?>
<!-- Created with Inkscape (http://www.inkscape.org/) -->

<svg
   width="256"
   height="256"
   viewBox="0 0 256 256"
   version="1.1"
   id="application_logo"
   inkscape:version="1.3 (0e150ed6c4, 2023-07-21)"
   sodipodi:docname="gonzago-logo-partitioned.svg"
   xml:space="preserve"
   inkscape:export-filename="gonzago-logo.png"
   inkscape:export-xdpi="96"
   inkscape:export-ydpi="96"
   xmlns:inkscape="http://www.inkscape.org/namespaces/inkscape"
   xmlns:sodipodi="http://sodipodi.sourceforge.net/DTD/sodipodi-0.dtd"
   xmlns="http://www.w3.org/2000/svg"
   xmlns:svg="http://www.w3.org/2000/svg"
   xmlns:rdf="http://www.w3.org/1999/02/22-rdf-syntax-ns#"
   xmlns:cc="http://creativecommons.org/ns#"
   xmlns:dc="http://purl.org/dc/elements/1.1/"><title
     id="title">Gonzago Framework Logo (Partitioned)</title><metadata
     id="metadata"><rdf:RDF><cc:Work
         rdf:about=""><dc:title>Gonzago Framework Logo (Partitioned)</dc:title><dc:date>2023-11-19</dc:date><dc:rights><cc:Agent><dc:title>Copyright (c) 2023 David Krummenacher and Gonzago Framework contributors</dc:title></cc:Agent></dc:rights><dc:creator><cc:Agent><dc:title>David Krummenacher</dc:title></cc:Agent></dc:creator><dc:publisher><cc:Agent><dc:title>Gonzago Framework</dc:title></cc:Agent></dc:publisher><dc:source>https://github.com/godot-gonzago</dc:source><dc:identifier>gonzago.application.logo_partitioned</dc:identifier><dc:language>en</dc:language><dc:subject><rdf:Bag><rdf:li>application</rdf:li><rdf:li>logo</rdf:li><rdf:li>gonzago</rdf:li><rdf:li>partitioned</rdf:li></rdf:Bag></dc:subject><dc:description>The Gonzago Framework logo showing a skull with a crown in reference to The Murder of Gonzago, a play within The Tragedy of Hamlet, Prince of Denmark. It is next to the Gonzago Framework word mark. The elements of the logo have been separated.</dc:description><dc:contributor><cc:Agent><dc:title>David Krummenacher</dc:title></cc:Agent></dc:contributor></cc:Work></rdf:RDF></metadata><sodipodi:namedview
     id="base_view"
     pagecolor="#595959"
     bordercolor="#333333"
     borderopacity="1"
     inkscape:pageshadow="0"
     inkscape:pageopacity="0"
     inkscape:pagecheckerboard="false"
     inkscape:document-units="px"
     showgrid="true"
     units="px"
     width="16px"
     viewbox-height="16"
     inkscape:zoom="8"
     inkscape:cx="126.6875"
     inkscape:cy="127.625"
     inkscape:window-width="1368"
     inkscape:window-height="850"
     inkscape:window-x="-6"
     inkscape:window-y="-6"
     inkscape:window-maximized="1"
     showborder="true"
     inkscape:snap-grids="true"
     inkscape:showpageshadow="0"
     inkscape:deskcolor="#404040"
     inkscape:current-layer="base_layer"><inkscape:grid
       type="xygrid"
       id="base_grid"
       dotted="false"
       empspacing="4"
       originx="52"
       originy="0"
       spacingy="1"
       spacingx="1"
       units="px"
       visible="true"
       color="#999999"
       opacity="0.14901961"
       empcolor="#999999"
       empopacity="0.30196078" /></sodipodi:namedview><defs
     id="base_definitions" /><g
     inkscape:label="Base Layer"
     inkscape:groupmode="layer"
     id="base_layer"><path
       id="gonzago_crown_outline"
       d="M 57,13.9 V 93.9 C 57,96.7 59.3,99 62.1,99 H 189.9 C 192.7,99 195,96.7 195,93.9 V 14 L 154.5,38.8 126,13.9 97.5,38.8 Z"
       fill="#fff7f8" /><g
       id="gonzago_text_outline"
       fill="#fff7f8"><path
         d="m 33.1,164.2 c -18.5,-0.3 -29.4,13.6 -29.4,29.1 0,10.9 5.9,22.3 17.4,26.9 l 1.2,17.7 C 65,242 69,216 68.9,208 l 0.1,-43.7 c -15.6,0.5 -19.3,0.4 -35.9,-0.1 l -0,-0 z"
         id="gonzago_text_outline_g1" /><path
         d="m 66.9,164.4 c -13.4,0 -26.1,10.9 -26.1,27.4 0,16 12.4,27.2 26.3,27.2 13.3,0 26.3,-10.7 26.3,-27.2 0,-16.1 -12.5,-27.4 -26.5,-27.4 z"
         id="gonzago_text_outline_o1" /><path
         d="m 66.2,133.5 v 85.4 h 40.2 v -2.2 l 25.7,17.4 V 156.5 H 96.7 Z"
         id="gonzago_text_outline_n" /><path
         d="m 105.6,163.9 v 37.8 L 85.9,238.4 H 163 v -40.5 h -5.6 l 18.3,-34 z"
         id="gonzago_text_outline_z" /><path
         d="M 161.3,126.3 119.9,220.5 h 82.7 z"
         id="gonzago_text_outline_a" /><path
         d="m 228.4,163.9 c -11.8,1 -23.7,0.5 -35.5,0.1 -17.9,0 -28.7,13.9 -28.7,29.2 0,10.8 6.1,21.3 17.3,25.8 l 1.3,18.9 C 213,240.5 228.4,231 228.4,205 Z"
         id="gonzago_text_outline_g2" /><path
         d="m 227.5,163.8 c -13.9,0 -26.3,11.4 -26.3,27.2 0,15.8 12.4,27.2 26.3,27.2 14.5,0 26.3,-11.9 26.3,-27.2 0,-16 -12.4,-27.2 -26.3,-27.2 z"
         id="gonzago_text_outline_o2" /></g><rect
       id="gonzago_base_teeth_outline"
       width="102"
       height="66"
       x="75"
       y="105"
       ry="24"
       fill="#fff7f8" /><rect
       id="gonzago_base_head_outline"
       width="138"
       height="104"
       x="57"
       y="44"
       ry="37"
       fill="#fff7f8" /><rect
       id="gonzago_base_border"
       width="60"
       height="56"
       x="96"
       y="120"
       fill="#2d2523" /><rect
       id="gonzago_base_head_border"
       width="126"
       height="92"
       x="63"
       y="51"
       ry="32"
       fill="#2d2523" /><rect
       id="gonzago_base_teeth_border"
       width="90"
       height="58"
       x="81"
       y="107"
       ry="18"
       fill="#2d2523" /><g
       id="gonzago_text_border"
       fill="#2d2523"><path
         d="m 9.7,193.3 c 0,10 5.5,19.9 17.1,22.5 l 1.1,16.3 c 9.2,0.3 18.4,0.3 26.1,-5.6 5.2,-4.4 9,-9.9 8.8,-17.5 l 0.2,-38.5 C 53,170.8 43,170.5 33,170.2 16.4,169.9 9.7,182.7 9.7,193.3 Z"
         id="gonzago_text_border_g1" /><path
         id="gonzago_text_border_o1"
         d="M 66.9,170.4 C 56.5,170.4 46.8,178.2 46.8,191.8 c 0,13.1 9.4,21.2 20.3,21.2 10.4,0 20.3,-7.6 20.3,-21.2 0,-13.2 -9.5,-21.4 -20.5,-21.4 z" /><path
         d="m 72.2,145.5 v 67.4 h 28.2 v -7.5 l 25.7,17.4 V 162.5 H 97.9 v 2.4 z"
         id="gonzago_text_border_n" /><path
         d="m 111.6,169.9 v 29 h 2.3 l -18,33.5 H 157 v -28.5 h -9.6 l 18.3,-34 z"
         id="gonzago_text_border_z" /><path
         d="m 161.3,141.2 -32.2,73.3 h 64.3 z"
         id="gonzago_text_border_a" /><path
         d="m 170.2,193.2 c 0,10 5.4,18.7 17,21.3 l 1.2,17.5 c 9.2,0.3 18.4,0.3 26.1,-5.6 5.2,-4.4 7.9,-11.5 7.9,-19.1 v -37.1 c -13.4,0.7 -18.4,0.4 -29.5,-0.2 -15.9,0 -22.7,12.6 -22.7,23.2 z"
         id="gonzago_text_border_g2" /><path
         d="m 227.5,169.8 c -10.9,0 -20.3,8.3 -20.3,21.2 0,12.9 9.4,21.2 20.3,21.2 11.5,0 20.3,-8.7 20.3,-21.2 0,-13.2 -9.3,-21.2 -20.3,-21.2 z"
         id="gonzago_text_border_o2" /></g><path
       id="gonzago_base_teeth"
       d="m 90,134 v 13 c 0,5.4 3.6,9 9,9 5.4,0 9,-3.6 9,-9 0,5.4 3.6,9 9,9 5.4,0 9,-3.6 9,-9 0,5.4 3.6,9 9,9 5.4,0 9,-3.6 9,-9 0,5.4 3.6,9 9,9 5.4,0 9,-3.6 9,-9 v -13 c 0,-6 -5.3,-9.2 -10,-10 -17.1,-2.8 -34.9,-2.8 -52,0 -4.7,0.8 -10,4 -10,10 z"
       fill="#fff7f8" /><rect
       id="gonzago_base_head"
       width="108"
       height="76"
       x="72"
       y="62"
       ry="27"
       fill="#fff7f8" /><g
       id="gonzago_base_eye_sockets"
       fill="#fff7f8"><circle
         id="gonzago_base_eye_socket_left"
         cx="100.8"
         cy="112"
         r="21" /><circle
         id="gonzago_base_eye_socket_right"
         cx="151.2"
         cy="112"
         r="21" /></g><g
       id="gonzago_face_eye_sockets"
       fill="#2d2523"><circle
         id="gonzago_face_eye_socket_left"
         cx="100.8"
         cy="111"
         r="18" /><circle
         id="gonzago_face_eye_socket_right"
         cx="151.2"
         cy="111"
         r="18" /></g><g
       id="gonzago_eyes"
       fill="#b2acad"><circle
         id="gonzago_eye_left"
         cx="100.8"
         cy="111"
         r="9" /><circle
         id="gonzago_eye_right"
         cx="151.2"
         cy="111"
         r="9" /></g><path
       d="m 120.6,117.3 -9,18 c -2.6,5.2 2.9,10.6 8.1,8.1 l 6.3,-3.2 6.3,3.2 c 5.2,2.6 10.6,-2.9 8.1,-8.1 l -9,-18 c -1.1,-2.3 -3.2,-11.4 -5.4,-11.3 -2,0.1 -4.2,9.2 -5.3,11.3 z"
       id="gonzago_base_nose"
       fill="#fff7f8" /><path
       id="gonzago_face_nose"
       d="m 126,120 -9,18 9,-4.5 9,4.5 z"
       fill="#2d2523" /><g
       id="gonzago_face_eye_brows"
       fill="#fff7f8"><rect
         id="gonzago_face_eye_brow_left"
         width="51"
         height="18"
         x="74"
         y="93"
         ry="4" /><rect
         id="gonzago_face_eye_brow_right"
         width="51"
         height="18"
         x="127"
         y="93"
         ry="4" /></g><path
       id="gonzago_crown_border"
       d="M 126 21.9 L 98.1 46.2 L 63 24.6 L 63 79 L 63 84 L 63 89.3 C 63 91.4 64.6 93 66.7 93 L 185.3 93 C 187.4 93 189 91.4 189 89.3 L 189 84 L 189 79 L 189 24.6 L 153.9 46.2 L 126 21.9 z"
       fill="#2d2523" /><path
       d="M 126,33.6 153,57 180,40.8 V 84 H 72 V 40.8 L 99,57 Z"
       id="gonzago_crown"
       fill="#ffda45" /><g
       id="gonzago_text"
       fill="#ff4f69"><path
         d="m 31.8,179.1 c -6.4,0 -13.1,4.4 -13.1,14.2 0,9.8 6.7,14.2 13.1,14.2 h 9.7 c 0,4 -2.1,6.4 -5.8,6.4 l 0.6,9.3 c 9.6,0 16.6,-4.1 16.6,-15.7 v -27.8 c -7,0.3 -14,-0.2 -21.1,-0.6 z"
         id="gonzago_text_g1" /><path
         d="m 67.1,179.6 c -6.9,0 -11.3,5 -11.3,12.2 0,7.2 4.4,12.2 11.3,12.2 6.9,0 11.3,-5 11.3,-12.2 0,-7.2 -4.1,-12.2 -11.3,-12.2 z"
         id="gonzago_text_o1" /><path
         d="m 81.2,163.6 v 40.3 h 10.2 v -15.5 l 25.7,17.4 V 171.5 H 106.9 V 183 Z"
         id="gonzago_text_n" /><path
         d="m 120.6,178.9 v 11 h 8.4 l -18,33.5 h 37 v -10.5 h -15.7 l 18.3,-34 z"
         id="gonzago_text_z" /><path
         d="m 161.3,163.6 -18.4,41.9 h 14.6 l 3.3,-7.4 3.1,7.4 h 15.8 z"
         id="gonzago_text_a" /><path
         d="m 192.3,179 c -6.4,0 -13.1,4.4 -13.1,14.2 0,9.8 6.7,14.2 13.1,14.2 h 9.7 c 0,4 -2.1,6.4 -5.8,6.4 l 0.6,9.3 c 9.6,0 16.6,-4.1 16.6,-15.7 v -27.8 c -7,0.3 -14,-0.2 -21.1,-0.6 z"
         id="gonzago_text_g2" /><path
         id="gonzago_text_o2"
         d="m 227.5,178.8 c -6.8,0 -11.3,5 -11.3,12.2 0,7.3 4.5,12.2 11.3,12.2 7,0 11.3,-4.9 11.3,-12.2 0,-7.2 -4.1,-12.2 -11.3,-12.2 z" /></g></g></svg>
