<?xml version="1.0" encoding="UTF-8" standalone="no"?>
<!-- Created with Inkscape (http://www.inkscape.org/) -->

<svg
   width="1024"
   height="1024"
   viewBox="0 0 1024 1024"
   version="1.1"
   id="svg5"
   inkscape:version="1.3 (0e150ed6c4, 2023-07-21)"
   sodipodi:docname="gonzago-splash.svg"
   xml:space="preserve"
   inkscape:export-filename="gonzago-splash.png"
   inkscape:export-xdpi="96"
   inkscape:export-ydpi="96"
   xmlns:inkscape="http://www.inkscape.org/namespaces/inkscape"
   xmlns:sodipodi="http://sodipodi.sourceforge.net/DTD/sodipodi-0.dtd"
   xmlns="http://www.w3.org/2000/svg"
   xmlns:svg="http://www.w3.org/2000/svg"><sodipodi:namedview
     id="namedview7"
     pagecolor="#99d595"
     bordercolor="#999999"
     borderopacity="1"
     inkscape:pageshadow="0"
     inkscape:pageopacity="0"
     inkscape:pagecheckerboard="false"
     inkscape:document-units="px"
     showgrid="true"
     units="px"
     width="16px"
     viewbox-height="16"
     inkscape:zoom="0.40693361"
     inkscape:cx="396.87064"
     inkscape:cy="594.69161"
     inkscape:window-width="1368"
     inkscape:window-height="850"
     inkscape:window-x="-6"
     inkscape:window-y="-6"
     inkscape:window-maximized="1"
     inkscape:current-layer="layer1"
     showborder="true"
     inkscape:snap-grids="true"
     inkscape:showpageshadow="0"
     inkscape:deskcolor="#d1d1d1"><inkscape:grid
       type="xygrid"
       id="grid902"
       dotted="true"
       empspacing="4"
       originx="128"
       originy="78"
       spacingy="1"
       spacingx="1"
       units="px"
       visible="true" /></sodipodi:namedview><defs
     id="defs2"><filter
       style="color-interpolation-filters:sRGB"
       inkscape:label="Drop Shadow"
       id="filter6681"
       x="-0.03837649"
       y="-0.042761693"
       width="1.076753"
       height="1.0944321"><feFlood
         flood-opacity="0.20000000000000001"
         flood-color="rgb(0,0,0)"
         result="flood"
         id="feFlood6671" /><feComposite
         in="flood"
         in2="SourceGraphic"
         operator="in"
         result="composite1"
         id="feComposite6673" /><feGaussianBlur
         in="composite1"
         stdDeviation="8"
         result="blur"
         id="feGaussianBlur6675" /><feOffset
         dx="0"
         dy="4"
         result="offset"
         id="feOffset6677" /><feComposite
         in="SourceGraphic"
         in2="offset"
         operator="over"
         result="composite2"
         id="feComposite6679" /></filter></defs><g
     inkscape:label="Ebene 1"
     inkscape:groupmode="layer"
     id="layer1"
     transform="translate(128,78)"><path
       id="gonzago_outline"
       d="M 437,255.6 C 418,239 399,222.4 380,205.8 361,222.4 342,239 323,255.6 296,239 269,222.4 242,205.8 c 0,65.8 0,131.8 0,197.6 0.6,16.6 7.4,32.8 18.4,45.2 v 58.2 c -23.2,1.4 -46.6,0 -69.8,-0.6 -17.8,0.2 -35.4,9.2 -45.2,24.2 -10.8,16 -12.8,37 -6.6,55 7,20.6 22.6,29.6 31.4,33.2 0.8,11.8 1.6,23.6 2.4,35.4 16.4,0.4 33,1.8 49,-2.6 21.2,-5.6 35.2,-21.6 40.6,-35.6 h 58.6 c -7,13 -13.8,26 -20.8,39 H 454 V 619 h 37.2 c 0.8,11.6 1.6,23.2 2.4,34.8 16.4,0.4 33,1.8 49,-2.6 12.8,-3.4 31.2,-12.6 38.8,-36.8 17.4,0.6 35,-7.8 44.8,-22.4 9.6,-14 11.6,-32.4 7.2,-48.6 C 626.2,517 601.2,503 576.8,506 c -23.8,1.8 -41,1 -60.8,0.2 -10.2,-0.6 -20.6,1.4 -29.6,6.2 -3,-6.8 -5.8,-13.4 -8.8,-20.2 3.8,-8.8 4.4,-18.4 4.4,-28 30,-20 36.8,-48 36,-71 V 205.8 c -27,16.6 -54,33.2 -81,49.8 z"
       fill="#fff7f8"
       style="filter:url(#filter6681)" /><path
       id="gonzago_border"
       d="M 380,221.8 324.2,270.4 254,227.2 V 400 c 0,25.2 14.4,45 36,57.6 0,8.8 -0.6,17.6 2,26.2 L 272.4,469 v 49.4 c -26.6,1 -53,1.6 -79.6,-0.2 h -0.6 -0.6 c -23.8,0 -44.2,18 -44.2,46.4 0,17.6 8.6,38.8 34.2,45.2 l 2.2,32.6 c 18.4,0.6 36.8,0.6 52.2,-11.2 8.2,-6.8 15.2,-15.8 17,-27.4 h 75.8 v -15.2 l 14.8,10 -23.6,44.2 H 442 V 607 h 60.4 l 2.4,35.2 c 18.4,0.6 36.8,0.6 52.2,-11.2 8.6,-7.2 13.6,-18 15.2,-30.2 3.6,1 7.2,1.6 10.8,1.6 22,0 40.6,-16.2 40.6,-42.4 0,-28 -20,-42.4 -40.6,-42.4 -23,2 -46.2,2 -69.2,0.4 -16.8,0 -26.4,6.8 -32.4,12.8 l -17,-39.2 c 6.6,-10.2 5.6,-22.4 5.6,-34 21.6,-12.6 36,-32.4 36,-57.6 V 227.2 l -70.2,43.2 z"
       fill="#2d2523" /><path
       d="m 380,245.2 54,46.8 54,-32.4 V 346 H 272 v -86.4 l 54,32.4 z"
       id="gonzago_crown"
       fill="#ffda45" /><path
       id="gonzago_base"
       d="m 272,364 v 36 c 0,23.4 14.4,43.2 36,50.4 V 472 c 0,10.8 7.2,18 18,18 10.8,0 18,-7.2 18,-18 0,10.8 7.2,18 18,18 10.8,0 18,-7.2 18,-18 0,10.8 7.2,18 18,18 10.8,0 18,-7.2 18,-18 0,10.8 7.2,18 18,18 10.8,0 18,-7.2 18,-18 v -21.6 c 21.6,-7.2 36,-27 36,-50.4 v -36 z"
       fill="#fff7f8" /><path
       id="gonzago_face"
       d="m 293.6,400 c 0,19.8 16.2,36 36,36 19.8,0 36,-16.2 36,-36 z m 100.8,0 c 0,19.8 16.2,36 36,36 19.8,0 36,-16.2 36,-36 z m -14.4,18 -18,36 18,-9 18,9 z"
       fill="#2d2523" /><path
       d="m 347.6,400 c 0,10.8 -7.2,18 -18,18 -10.8,0 -18,-7.2 -18,-18 z m 100.8,0 c 0,10.8 -7.2,18 -18,18 -10.8,0 -18,-7.2 -18,-18 z"
       id="gonzago_eyes"
       fill="#b2acad" /><path
       id="gonzago_text"
       d="m 290.4,505.2 v 80.6 h 20.4 v -31 l 51.4,34.8 V 521 h -20.4 v 23 z m 160.2,0 -36.8,83.8 H 443 l 6.6,-14.8 6.2,14.8 h 31.6 z M 583,535.6 c -13.6,0 -22.6,10 -22.6,24.4 0,14.6 9,24.4 22.6,24.4 14,0 22.6,-9.8 22.6,-24.4 0,-14.4 -8.2,-24.4 -22.6,-24.4 z m -213.8,0.2 v 22 H 386 l -36,67 h 74 v -21 h -31.4 l 36.6,-68 z m 143.4,0.2 c -12.8,0 -26.2,8.8 -26.2,28.4 0,19.6 13.4,28.4 26.2,28.4 H 532 c 0,8 -4.2,12.8 -11.6,12.8 l 1.2,18.6 c 19.2,0 33.2,-8.2 33.2,-31.4 v -55.6 c -14,0.6 -28,-0.4 -42.2,-1.2 z m -321,0.2 c -12.8,0 -26.2,8.8 -26.2,28.4 0,19.6 13.4,28.4 26.2,28.4 H 211 c 0,8 -4.2,12.8 -11.6,12.8 l 1.2,18.6 c 19.2,0 33.2,-8.2 33.2,-31.4 v -55.6 c -14,0.6 -28,-0.4 -42.2,-1.2 z m 70.6,1 c -13.8,0 -22.6,10 -22.6,24.4 0,14.4 8.8,24.4 22.6,24.4 13.8,0 22.6,-10 22.6,-24.4 0,-14.4 -8.2,-24.4 -22.6,-24.4 z"
       fill="#ff4f69" /></g></svg>
