<?xml version="1.0" encoding="UTF-8" standalone="no"?>
<!-- Created with Inkscape (http://www.inkscape.org/) -->

<svg
   width="256"
   height="256"
   viewBox="0 0 256 256"
   version="1.1"
   id="application_logo"
   inkscape:version="1.3 (0e150ed6c4, 2023-07-21)"
   sodipodi:docname="gonzago-logo.svg"
   xml:space="preserve"
   inkscape:export-filename="github.png"
   inkscape:export-xdpi="136.53334"
   inkscape:export-ydpi="136.53334"
   xmlns:inkscape="http://www.inkscape.org/namespaces/inkscape"
   xmlns:sodipodi="http://sodipodi.sourceforge.net/DTD/sodipodi-0.dtd"
   xmlns="http://www.w3.org/2000/svg"
   xmlns:svg="http://www.w3.org/2000/svg"
   xmlns:rdf="http://www.w3.org/1999/02/22-rdf-syntax-ns#"
   xmlns:cc="http://creativecommons.org/ns#"
   xmlns:dc="http://purl.org/dc/elements/1.1/"><title
     id="title">Gonzago Framework Logo</title><metadata
     id="metadata"><rdf:RDF><cc:Work
         rdf:about=""><dc:title>Gonzago Framework Logo</dc:title><dc:date>2023-11-19</dc:date><dc:rights><cc:Agent><dc:title>Copyright (c) 2023 David Krummenacher and Gonzago Framework contributors</dc:title></cc:Agent></dc:rights><dc:creator><cc:Agent><dc:title>David Krummenacher</dc:title></cc:Agent></dc:creator><dc:publisher><cc:Agent><dc:title>Gonzago Framework</dc:title></cc:Agent></dc:publisher><dc:source>https://github.com/godot-gonzago</dc:source><dc:identifier>gonzago.application.logo</dc:identifier><dc:language>en</dc:language><dc:subject><rdf:Bag><rdf:li>application</rdf:li><rdf:li>logo</rdf:li><rdf:li>gonzago</rdf:li></rdf:Bag></dc:subject><dc:description>The Gonzago Framework logo showing a skull with a crown in reference to The Murder of Gonzago, a play within The Tragedy of Hamlet, Prince of Denmark. It is next to the Gonzago Framework word mark.</dc:description><dc:contributor><cc:Agent><dc:title>David Krummenacher</dc:title></cc:Agent></dc:contributor></cc:Work></rdf:RDF></metadata><sodipodi:namedview
     id="base_view"
     pagecolor="#595959"
     bordercolor="#333333"
     borderopacity="1"
     inkscape:pageshadow="0"
     inkscape:pageopacity="0"
     inkscape:pagecheckerboard="false"
     inkscape:document-units="px"
     showgrid="true"
     units="px"
     width="16px"
     viewbox-height="16"
     inkscape:zoom="1.6277345"
     inkscape:cx="153.89488"
     inkscape:cy="194.13485"
     inkscape:window-width="1368"
     inkscape:window-height="850"
     inkscape:window-x="-6"
     inkscape:window-y="-6"
     inkscape:window-maximized="1"
     inkscape:current-layer="base_layer"
     showborder="true"
     inkscape:snap-grids="true"
     inkscape:showpageshadow="0"
     inkscape:deskcolor="#404040"><inkscape:grid
       type="xygrid"
       id="base_grid"
       dotted="false"
       empspacing="4"
       originx="52"
       originy="0"
       spacingy="1"
       spacingx="1"
       units="px"
       visible="true"
       color="#999999"
       opacity="0.14901961"
       empcolor="#999999"
       empopacity="0.30196078" /></sodipodi:namedview><defs
     id="base_definitions" /><g
     inkscape:label="Base Layer"
     inkscape:groupmode="layer"
     id="base_layer"><path
       id="gonzago_outline"
       d="M 154.5,38.8 C 145,30.5 135.5,22.2 126,13.9 116.5,22.2 107,30.5 97.5,38.8 84,30.5 70.5,22.2 57,13.9 c 0,32.9 0,65.9 0,98.8 0.3,8.3 3.7,16.4 9.2,22.6 v 29.1 c -11.6,0.7 -23.3,0 -34.9,-0.3 -8.9,0.1 -17.7,4.6 -22.6,12.1 -5.4,8 -6.4,18.5 -3.3,27.5 3.5,10.3 11.3,14.8 15.7,16.6 0.4,5.9 0.8,11.8 1.2,17.7 8.2,0.2 16.5,0.9 24.5,-1.3 10.6,-2.8 17.6,-10.8 20.3,-17.8 h 29.3 c -3.5,6.5 -6.9,13 -10.4,19.5 h 77 v -17.9 h 18.6 c 0.4,5.8 0.8,11.6 1.2,17.4 8.2,0.2 16.5,0.9 24.5,-1.3 6.4,-1.7 15.6,-6.3 19.4,-18.4 8.7,0.3 17.5,-3.9 22.4,-11.2 4.8,-7 5.8,-16.2 3.6,-24.3 -3.6,-13.2 -16.1,-20.2 -28.3,-18.7 -11.9,0.9 -20.5,0.5 -30.4,0.1 -5.1,-0.3 -10.3,0.7 -14.8,3.1 -1.5,-3.4 -2.9,-6.7 -4.4,-10.1 1.9,-4.4 2.2,-9.2 2.2,-14 15,-10 18.4,-24 18,-35.5 V 13.9 c -13.5,8.3 -27,16.6 -40.5,24.9 z"
       fill="#fff7f8" /><path
       id="gonzago_border"
       d="M 126,21.9 98.1,46.2 63,24.6 V 111 c 0,12.6 7.2,22.5 18,28.8 0,4.4 -0.3,8.8 1,13.1 l -9.8,-7.4 v 24.7 c -13.3,0.5 -26.5,0.8 -39.8,-0.1 h -0.3 -0.3 c -11.9,0 -22.1,9 -22.1,23.2 0,8.8 4.3,19.4 17.1,22.6 l 1.1,16.3 c 9.2,0.3 18.4,0.3 26.1,-5.6 4.1,-3.4 7.6,-7.9 8.5,-13.7 h 37.9 v -7.6 l 7.4,5 -11.8,22.1 h 61 v -17.9 h 30.2 l 1.2,17.6 c 9.2,0.3 18.4,0.3 26.1,-5.6 4.3,-3.6 6.8,-9 7.6,-15.1 1.8,0.5 3.6,0.8 5.4,0.8 11,0 20.3,-8.1 20.3,-21.2 0,-14 -10,-21.2 -20.3,-21.2 -11.5,1 -23.1,1 -34.6,0.2 -8.4,0 -13.2,3.4 -16.2,6.4 l -8.5,-19.6 c 3.3,-5.1 2.8,-11.2 2.8,-17 10.8,-6.3 18,-16.2 18,-28.8 V 24.6 l -35.1,21.6 z"
       fill="#2d2523" /><path
       d="M 126,33.6 153,57 180,40.8 V 84 H 72 V 40.8 L 99,57 Z"
       id="gonzago_crown"
       fill="#ffda45" /><path
       id="gonzago_base"
       d="m 72,93 v 18 c 0,11.7 7.2,21.6 18,25.2 V 147 c 0,5.4 3.6,9 9,9 5.4,0 9,-3.6 9,-9 0,5.4 3.6,9 9,9 5.4,0 9,-3.6 9,-9 0,5.4 3.6,9 9,9 5.4,0 9,-3.6 9,-9 0,5.4 3.6,9 9,9 5.4,0 9,-3.6 9,-9 v -10.8 c 10.8,-3.6 18,-13.5 18,-25.2 V 93 Z"
       fill="#fff7f8" /><path
       id="gonzago_face"
       d="m 82.8,111 c 0,9.9 8.1,18 18,18 9.9,0 18,-8.1 18,-18 z m 50.4,0 c 0,9.9 8.1,18 18,18 9.9,0 18,-8.1 18,-18 z m -7.2,9 -9,18 9,-4.5 9,4.5 z"
       fill="#2d2523" /><path
       d="m 109.8,111 c 0,5.4 -3.6,9 -9,9 -5.4,0 -9,-3.6 -9,-9 z m 50.4,0 c 0,5.4 -3.6,9 -9,9 -5.4,0 -9,-3.6 -9,-9 z"
       id="gonzago_eyes"
       fill="#b2acad" /><path
       id="gonzago_text"
       d="m 81.2,163.6 v 40.3 h 10.2 v -15.5 l 25.7,17.4 V 171.5 H 106.9 V 183 Z m 80.1,0 -18.4,41.9 h 14.6 l 3.3,-7.4 3.1,7.4 h 15.8 z m 66.2,15.2 c -6.8,0 -11.3,5 -11.3,12.2 0,7.3 4.5,12.2 11.3,12.2 7,0 11.3,-4.9 11.3,-12.2 0,-7.2 -4.1,-12.2 -11.3,-12.2 z m -106.9,0.1 v 11 h 8.4 l -18,33.5 h 37 v -10.5 h -15.7 l 18.3,-34 z m 71.7,0.1 c -6.4,0 -13.1,4.4 -13.1,14.2 0,9.8 6.7,14.2 13.1,14.2 h 9.7 c 0,4 -2.1,6.4 -5.8,6.4 l 0.6,9.3 c 9.6,0 16.6,-4.1 16.6,-15.7 v -27.8 c -7,0.3 -14,-0.2 -21.1,-0.6 z m -160.5,0.1 c -6.4,0 -13.1,4.4 -13.1,14.2 0,9.8 6.7,14.2 13.1,14.2 h 9.7 c 0,4 -2.1,6.4 -5.8,6.4 l 0.6,9.3 c 9.6,0 16.6,-4.1 16.6,-15.7 v -27.8 c -7,0.3 -14,-0.2 -21.1,-0.6 z m 35.3,0.5 c -6.9,0 -11.3,5 -11.3,12.2 0,7.2 4.4,12.2 11.3,12.2 6.9,0 11.3,-5 11.3,-12.2 0,-7.2 -4.1,-12.2 -11.3,-12.2 z"
       fill="#ff4f69" /></g></svg>
