<?xml version="1.0" encoding="UTF-8" standalone="no"?>
<!-- Created with Inkscape (http://www.inkscape.org/) -->

<svg
   width="64"
   height="64"
   viewBox="0 0 64 64"
   version="1.1"
   id="svg5"
   inkscape:version="1.3 (0e150ed6c4, 2023-07-21)"
   sodipodi:docname="gonzago-icon-large.svg"
   inkscape:export-filename="github.png"
   inkscape:export-xdpi="768"
   inkscape:export-ydpi="768"
   xmlns:inkscape="http://www.inkscape.org/namespaces/inkscape"
   xmlns:sodipodi="http://sodipodi.sourceforge.net/DTD/sodipodi-0.dtd"
   xmlns="http://www.w3.org/2000/svg"
   xmlns:svg="http://www.w3.org/2000/svg">
  <sodipodi:namedview
     id="namedview7"
     pagecolor="#ffffff"
     bordercolor="#999999"
     borderopacity="1"
     inkscape:pageshadow="0"
     inkscape:pageopacity="0"
     inkscape:pagecheckerboard="false"
     inkscape:document-units="px"
     showgrid="true"
     units="px"
     width="16px"
     viewbox-height="16"
     inkscape:zoom="7.9999999"
     inkscape:cx="30.3125"
     inkscape:cy="38.625"
     inkscape:window-width="1368"
     inkscape:window-height="850"
     inkscape:window-x="-6"
     inkscape:window-y="-6"
     inkscape:window-maximized="1"
     inkscape:current-layer="layer1"
     showborder="true"
     inkscape:snap-grids="true"
     inkscape:showpageshadow="0"
     inkscape:deskcolor="#d1d1d1">
    <inkscape:grid
       type="xygrid"
       id="grid902"
       dotted="true"
       empspacing="4"
       originx="0"
       originy="0"
       spacingy="1"
       spacingx="1"
       units="px"
       visible="true" />
  </sodipodi:namedview>
  <defs
     id="defs2" />
  <g
     inkscape:label="Ebene 1"
     inkscape:groupmode="layer"
     id="layer1">
    <path
       d="M 8,3.8 V 38 c 0,4.7 2.5,8.5 6,11.1 -0.1,2.8 0.6,5.3 2.7,7.2 1.7,2.1 4.1,2.7 6.3,2.7 h 18 c 2.2,0 4.6,-0.6 6.3,-2.7 2.2,-1.8 2.7,-4.5 2.7,-7.2 3.5,-2.6 6,-6.4 6,-11.1 V 3.8 L 41.6,12.7 32,4.3 c -3.2,2.8 -6.4,5.6 -9.6,8.4 z"
       id="gonzago-outline"
       fill="#fff7f8" />
    <path
       d="M 32,8.3 22.7,16.4 11,9.2 V 38 c 0,4.2 2.4,7.5 6,9.6 V 50 c 0,1.5 0.6,3.3 1.8,4.2 0.9,1.2 2.7,1.8 4.2,1.8 h 18 c 1.5,0 3.3,-0.6 4.2,-1.8 C 46.4,53.3 47,51.5 47,50 v -2.4 c 3.6,-2.1 6,-5.4 6,-9.6 V 9.2 l -11.7,7.2 z"
       id="gonzago-border"
       fill="#2d2523" />
    <path
       d="m 32,12.2 9,7.8 9,-5.4 V 29 H 14 V 14.6 l 9,5.4 z"
       id="gonzago_crown"
       fill="#ffda45" />
    <path
       id="gonzago_base"
       d="m 14,32 v 6 c 0,3.9 2.4,7.2 6,8.4 V 50 c 0,1.8 1.2,3 3,3 1.8,0 3,-1.2 3,-3 0,1.8 1.2,3 3,3 1.8,0 3,-1.2 3,-3 0,1.8 1.2,3 3,3 1.8,0 3,-1.2 3,-3 0,1.8 1.2,3 3,3 1.8,0 3,-1.2 3,-3 v -3.6 c 3.6,-1.2 6,-4.5 6,-8.4 v -6 z"
       fill="#fff7f8" />
    <path
       id="gonzago_face"
       d="m 17.6,38 c 0,3.3 2.7,6 6,6 3.3,0 6,-2.7 6,-6 z m 16.8,0 c 0,3.3 2.7,6 6,6 3.3,0 6,-2.7 6,-6 z m -2.4,3 -3,6 3,-1.5 3,1.5 z"
       fill="#2d2523" />
    <path
       d="m 26.6,38 c 0,1.8 -1.2,3 -3,3 -1.8,0 -3,-1.2 -3,-3 z m 16.8,0 c 0,1.8 -1.2,3 -3,3 -1.8,0 -3,-1.2 -3,-3 z"
       id="gonzago_eyes"
       fill="#b2acad" />
  </g>
</svg>
