<svg version="1.1" viewBox="0 0 16 16" xmlns="http://www.w3.org/2000/svg"><defs><clipPath id="b"><rect x="4" y="11" width="8" height="4"/></clipPath><clipPath id="a"><path d="m0 0v16h7v-5c0-0.8 0.5-1.5 1.2-1.8 0.8-0.4 1.6-0.2 2.2 0.4l1.6 1.6 1.6-1.6c0.4-0.4 0.9-0.6 1.3-0.6h1.1v-9z"/></clipPath></defs><g clip-path="url(#a)"><path d="m5 1h6c0.6 0 0.9 0.6 0.9 1.3l-0.8 7.9c-0.1 0.5-0.4 0.8-0.8 0.8h-4.5c-0.5 0-0.8-0.3-0.9-0.8l-0.8-7.9c-0.1-0.7 0.346-1.3 0.9-1.3z" fill="#e0e0e0"/><circle cx="8" cy="15" r="3" clip-path="url(#b)" fill="#e0e0e0"/><path d="m8 11v2" fill="none" stroke="#e0e0e0" stroke-width="2"/><path d="m6.6 7c0.2 1.2-0.5 1.9-1.6 1.8-1.1-0.2-2.5-1.2-3.2-2.5-0.8-1.6-0.4-3.1 1.2-2.8 1.7 0.3 3.3 2 3.6 3.5zm2.8 0c-0.2 1.2 0.5 1.9 1.6 1.8 1-0.2 2.5-1.2 3.2-2.5 0.8-1.6 0.4-3.1-1.3-2.8-1.6 0.3-3.2 2-3.5 3.5z" fill="none" stroke="#e0e0e0" stroke-width="2"/></g><path d="m9 16v-5l3 3 3-3v5" fill="none" stroke="#80ff45" stroke-linejoin="round" stroke-width="2"/></svg>
