<?xml version="1.0" encoding="UTF-8" standalone="no"?>
<!-- Created with Inkscape (http://www.inkscape.org/) -->

<svg
   width="16"
   height="16"
   viewBox="0 0 16 16"
   version="1.1"
   id="icon_svg"
   inkscape:version="1.2.2 (732a01da63, 2022-12-09)"
   sodipodi:docname="element_remove.svg"
   xmlns:inkscape="http://www.inkscape.org/namespaces/inkscape"
   xmlns:sodipodi="http://sodipodi.sourceforge.net/DTD/sodipodi-0.dtd"
   xmlns="http://www.w3.org/2000/svg"
   xmlns:svg="http://www.w3.org/2000/svg">
  <sodipodi:namedview
     id="base_view"
     inkscape:document-units="px"
     showgrid="true"
     units="px"
     width="16px"
     viewbox-height="16"
     inkscape:snap-grids="true"
     pagecolor="#ffffff"
     bordercolor="#666666"
     borderopacity="1.0"
     inkscape:showpageshadow="2"
     inkscape:pageopacity="0.0"
     inkscape:pagecheckerboard="0"
     inkscape:deskcolor="#d1d1d1"
     inkscape:current-layer="base_layer">
    <inkscape:grid
       type="xygrid"
       id="base_grid"
       dotted="true"
       empspacing="4" />
  </sodipodi:namedview>
  <defs
     id="base_definitions" />
  <g
     inkscape:label="Base Layer"
     inkscape:groupmode="layer"
     id="base_layer">
    <path
       id="mask_neg"
       d="M 10.5,7 7,10.5 8.5,12 7,13.5 9.5,16 C 11.5,16 14,16 16,16 16,14 16,11.5 16,9.5 L 13.5,7 12,8.5 Z" />
    <path
       id="mask_pos"
       d="M 0 0 L 0 16 L 9.5 16 L 7 13.5 L 8.5 12 L 7 10.5 L 10.5 7 L 12 8.5 L 13.5 7 L 16 9.5 L 16 0 L 0 0 z " />
    <path
       d="M 13.4,12 14.8,10.6 13.4,9.2 12,10.6 10.6,9.2 9.2,10.6 10.6,12 l -1.4,1.4 1.4,1.4 1.4,-1.4 1.4,1.4 1.4,-1.4 z"
       fill="#ff5f5f"
       id="cross" />
  </g>
</svg>
