<?xml version="1.0" encoding="UTF-8" standalone="no"?>
<!-- Created with Inkscape (http://www.inkscape.org/) -->

<svg
   width="16"
   height="16"
   viewBox="0 0 16 16"
   version="1.1"
   id="icon_svg"
   inkscape:version="1.2.2 (732a01da63, 2022-12-09)"
   sodipodi:docname="manager.svg"
   xmlns:inkscape="http://www.inkscape.org/namespaces/inkscape"
   xmlns:sodipodi="http://sodipodi.sourceforge.net/DTD/sodipodi-0.dtd"
   xmlns="http://www.w3.org/2000/svg"
   xmlns:svg="http://www.w3.org/2000/svg">
  <sodipodi:namedview
     id="base_view"
     inkscape:document-units="px"
     showgrid="true"
     units="px"
     width="16px"
     viewbox-height="16"
     inkscape:snap-grids="true"
     pagecolor="#ffffff"
     bordercolor="#666666"
     borderopacity="1.0"
     inkscape:showpageshadow="2"
     inkscape:pageopacity="0.0"
     inkscape:pagecheckerboard="0"
     inkscape:deskcolor="#d1d1d1"
     inkscape:current-layer="base_layer">
    <inkscape:grid
       type="xygrid"
       id="base_grid"
       dotted="true"
       empspacing="4" />
  </sodipodi:namedview>
  <defs
     id="base_definitions" />
  <g
     inkscape:label="Base Layer"
     inkscape:groupmode="layer"
     id="base_layer">
    <path
       id="mask_neg"
       d="M 14.935547,8.998086 C 14.46027,9.0099409 13.979684,9.1925046 13.585938,9.5859766 L 12,11.171914 10.414062,9.5859766 C 9.8420314,9.0139689 8.981768,8.8428411 8.234375,9.1523829 7.4871986,9.4620542 7.0000524,10.191232 7,11.000039 V 16 h 9 V 9.0000391 c 0,0 -1.009004,-0.00334 -1.064453,-0.00195 z" />
    <path
       id="mask_pos"
       d="M 0 0 L 0 16 L 7 16 L 7 11 C 7.0000524 10.191194 7.4871993 9.4620147 8.234375 9.1523438 C 8.9817673 8.8428023 9.8420325 9.0139304 10.414062 9.5859375 L 12 11.171875 L 13.585938 9.5859375 C 13.979683 9.1924659 14.46027 9.0099018 14.935547 8.9980469 C 14.990996 8.9966569 16 9 16 9 L 16 0 L 0 0 z " />
    <path
       d="m 9,16 v -5 l 3,3 3,-3 v 5"
       id="manager"
       fill="none"
       stroke="#80ff45"
       stroke-linejoin="round"
       stroke-width="2" />
  </g>
</svg>
