<?xml version="1.0" encoding="UTF-8" standalone="no"?>
<!-- Created with Inkscape (http://www.inkscape.org/) -->

<svg
   width="16"
   height="16"
   viewBox="0 0 16 16"
   version="1.1"
   id="icon_svg"
   inkscape:version="1.2.2 (732a01da63, 2022-12-09)"
   sodipodi:docname="script.svg"
   xmlns:inkscape="http://www.inkscape.org/namespaces/inkscape"
   xmlns:sodipodi="http://sodipodi.sourceforge.net/DTD/sodipodi-0.dtd"
   xmlns="http://www.w3.org/2000/svg"
   xmlns:svg="http://www.w3.org/2000/svg"
   xmlns:rdf="http://www.w3.org/1999/02/22-rdf-syntax-ns#"
   xmlns:cc="http://creativecommons.org/ns#"
   xmlns:dc="http://purl.org/dc/elements/1.1/">
  <metadata
     id="metadata">
    <rdf:RDF>
      <cc:Work
         rdf:about="">
        <cc:license
           rdf:resource="http://creativecommons.org/licenses/by/4.0/" />
        <dc:creator>
          <cc:Agent>
            <dc:title>David Krummenacher</dc:title>
          </cc:Agent>
        </dc:creator>
        <dc:publisher>
          <cc:Agent>
            <dc:title>Gonzago Framework</dc:title>
          </cc:Agent>
        </dc:publisher>
        <dc:source>https://github.com/godot-gonzago</dc:source>
      </cc:Work>
      <cc:License
         rdf:about="http://creativecommons.org/licenses/by/4.0/">
        <cc:permits
           rdf:resource="http://creativecommons.org/ns#Reproduction" />
        <cc:permits
           rdf:resource="http://creativecommons.org/ns#Distribution" />
        <cc:requires
           rdf:resource="http://creativecommons.org/ns#Notice" />
        <cc:requires
           rdf:resource="http://creativecommons.org/ns#Attribution" />
        <cc:permits
           rdf:resource="http://creativecommons.org/ns#DerivativeWorks" />
      </cc:License>
    </rdf:RDF>
  </metadata>
  <sodipodi:namedview
     id="base_view"
     showgrid="true"
     units="px"
     width="16px"
     viewbox-height="16"
     inkscape:snap-grids="true"
     pagecolor="#333b4f"
     bordercolor="#8f939e"
     borderopacity="1"
     inkscape:pageopacity="0"
     inkscape:deskcolor="#1c202b"
     inkscape:current-layer="base_layer"
     inkscape:showpageshadow="0"
     inkscape:zoom="20"
     inkscape:cx="7.65"
     inkscape:cy="8.825"
     inkscape:window-width="1368"
     inkscape:window-height="850"
     inkscape:window-x="-6"
     inkscape:window-y="-6"
     inkscape:window-maximized="1"
     inkscape:document-units="px"
     inkscape:pagecheckerboard="0">
    <inkscape:grid
       type="xygrid"
       id="base_grid"
       dotted="true"
       empspacing="4"
       empcolor="#699ce8"
       empopacity="0.3"
       color="#699ce8"
       opacity="0.3" />
  </sodipodi:namedview>
  <defs
     id="base_definitions">
    <clipPath
       clipPathUnits="userSpaceOnUse"
       id="entity_clipping_pos">
      <path
         id="entity_clipping_pos_shape"
         d="m 8,16 v -4 c 0,-2.2 1.8,-4 4,-4 2.2,0 4,0 4,0 V 0 H 0 v 16 z" />
    </clipPath>
  </defs>
  <g
     inkscape:label="Base Layer"
     inkscape:groupmode="layer"
     id="base_layer">
    <g
       id="script"
       clip-path="url(#entity_clipping_pos)">
      <path
         id="script_base"
         d="M 6,1 C 4.9,1 4,1.9 4,3 v 7 H 1 v 3 c 0,1.1 0.9,2 2,2 h 7 c 1.1,0 2,-0.9 2,-2 V 5 h 3 V 3 C 15,1.9 14.1,1 13,1 Z"
         fill="#e0e0e0" />
      <path
         d="M 12,6 V 5 H 8 V 3 C 8,1.9 7.1,1 6,1 4.9,1 4,1.9 4,3 v 7 H 1 v 3 c 0,1.1 0.9,2 2,2 1.1,0 2,-0.9 2,-2 V 3 C 5,2.45 5.45,2 6,2 6.55,2 7,2.45 7,3 v 3 m -5,5 h 2 v 2 C 4,13.55 3.55,14 3,14 2.45,14 2,13.55 2,13 Z"
         fill="#b3b3b3"
         id="script_shadow" />
    </g>
    <g
       id="entity_icon">
      <circle
         cy="12.5"
         cx="12.5"
         id="entity_icon_center"
         fill="#e0e0e0"
         r="1.5" />
      <circle
         cy="12.5"
         cx="12.5"
         id="entity_icon_ring"
         stroke="#e0e0e0"
         stroke-width="1"
         r="3"
         fill="none" />
    </g>
  </g>
</svg>
