<svg version="1.1" viewBox="0 0 16 16" xmlns="http://www.w3.org/2000/svg"><g fill="#e0e0e0"><rect x="5" y="1" width="6" height="3.5" ry="1"/><rect transform="rotate(240)" x="-14.811" y="-5.5087" width="6" height="3.5" ry="1"/><rect transform="rotate(120)" x=".81097" y="-19.365" width="6" height="3.5" ry="1"/><path d="m8 2.8a6.2 6.2 0 0 0-6.2 6.2 6.2 6.2 0 0 0 6.2 6.2 6.2 6.2 0 0 0 6.2-6.2 6.2 6.2 0 0 0-6.2-6.2zm0 2.6c2 0 3.6 1.6 3.6 3.6s-1.6 3.6-3.6 3.6-3.6-1.6-3.6-3.6 1.6-3.6 3.6-3.6zm0 2c-0.9 0-1.6 0.7-1.6 1.6s0.7 1.6 1.6 1.6 1.6-0.7 1.6-1.6-0.7-1.6-1.6-1.6z"/></g></svg>
