<?xml version="1.0" encoding="UTF-8" standalone="no"?>
<!-- Created with Inkscape (http://www.inkscape.org/) -->

<svg
   width="16"
   height="16"
   viewBox="0 0 16 16"
   version="1.1"
   id="icon_svg"
   inkscape:version="1.2.2 (732a01da63, 2022-12-09)"
   sodipodi:docname="settings.svg"
   xml:space="preserve"
   xmlns:inkscape="http://www.inkscape.org/namespaces/inkscape"
   xmlns:sodipodi="http://sodipodi.sourceforge.net/DTD/sodipodi-0.dtd"
   xmlns="http://www.w3.org/2000/svg"
   xmlns:svg="http://www.w3.org/2000/svg"
   xmlns:rdf="http://www.w3.org/1999/02/22-rdf-syntax-ns#"
   xmlns:cc="http://creativecommons.org/ns#"
   xmlns:dc="http://purl.org/dc/elements/1.1/"><metadata
     id="metadata"><rdf:RDF><cc:Work
         rdf:about=""><cc:license
           rdf:resource="http://creativecommons.org/licenses/by/4.0/" /><dc:creator><cc:Agent><dc:title>David Krummenacher</dc:title></cc:Agent></dc:creator><dc:publisher><cc:Agent><dc:title>Gonzago Framework</dc:title></cc:Agent></dc:publisher><dc:source>https://github.com/godot-gonzago</dc:source></cc:Work><cc:License
         rdf:about="http://creativecommons.org/licenses/by/4.0/"><cc:permits
           rdf:resource="http://creativecommons.org/ns#Reproduction" /><cc:permits
           rdf:resource="http://creativecommons.org/ns#Distribution" /><cc:requires
           rdf:resource="http://creativecommons.org/ns#Notice" /><cc:requires
           rdf:resource="http://creativecommons.org/ns#Attribution" /><cc:permits
           rdf:resource="http://creativecommons.org/ns#DerivativeWorks" /></cc:License></rdf:RDF></metadata><sodipodi:namedview
     id="base_view"
     showgrid="true"
     units="px"
     width="16px"
     viewbox-height="16"
     inkscape:snap-grids="true"
     pagecolor="#333b4f"
     bordercolor="#8f939e"
     borderopacity="1"
     inkscape:pageopacity="0"
     inkscape:deskcolor="#1c202b"
     inkscape:current-layer="base_layer"
     inkscape:showpageshadow="0"
     inkscape:zoom="20"
     inkscape:cx="-1.1"
     inkscape:cy="10.225"
     inkscape:window-width="1368"
     inkscape:window-height="850"
     inkscape:window-x="-6"
     inkscape:window-y="-6"
     inkscape:window-maximized="1"
     inkscape:document-units="px"
     inkscape:pagecheckerboard="0"><inkscape:grid
       type="xygrid"
       id="base_grid"
       dotted="true"
       empspacing="4"
       empcolor="#699ce8"
       empopacity="0.3"
       color="#699ce8"
       opacity="0.3" /></sodipodi:namedview><defs
     id="base_definitions" /><g
     inkscape:label="Base Layer"
     inkscape:groupmode="layer"
     id="base_layer"><circle
       id="circle"
       cx="8"
       cy="8"
       r="3.5"
       fill="none"
       stroke="#e0e0e0"
       stroke-width="3" /><path
       d="m 7.5,1 h 1 C 8.777,1 9.0803025,1.3212099 9.2,1.8 L 9.5,3 C 9.7411492,3.9645966 9.554,5 9,5 L 7,5 C 6.446,5 6.2588508,3.9645966 6.5,3 L 6.8,1.8 C 6.9196975,1.3212099 7.223,1 7.5,1 Z M 2.6966991,3.4038059 3.4038059,2.6966991 C 3.5996745,2.5008306 4.0412715,2.513493 4.4644661,2.7674098 l 1.0606602,0.6363961 c 0.852591,0.5115546 1.4523973,1.3760298 1.0606601,1.767767 L 5.1715729,6.5857864 C 4.7798357,6.9775236 3.9153605,6.3777173 3.4038059,5.5251263 L 2.7674098,4.4644661 C 2.513493,4.0412715 2.5008306,3.5996745 2.6966991,3.4038059 Z M 1,8.5 v -1 C 1,7.223 1.3212099,6.9196975 1.8,6.8 L 3,6.5 C 3.9645966,6.2588508 5,6.446 5,7 L 5,9 C 5,9.554 3.9645966,9.7411492 3,9.5 L 1.8,9.2 C 1.3212099,9.0803025 1,8.777 1,8.5 Z M 3.4038059,13.303301 2.6966991,12.596194 C 2.5008306,12.400325 2.513493,11.958729 2.7674098,11.535534 l 0.6363961,-1.06066 C 3.9153605,9.6222827 4.7798357,9.0224764 5.1715729,9.4142136 l 1.4142135,1.4142134 c 0.3917372,0.391737 -0.2080691,1.256212 -1.0606601,1.767767 L 4.4644661,13.23259 c -0.4231946,0.253917 -0.8647916,0.266579 -1.0606602,0.07071 z M 8.5,15 h -1 C 7.223,15 6.9196975,14.67879 6.8,14.2 L 6.5,13 C 6.2588508,12.035403 6.446,11 7,11 l 2,0 c 0.554,0 0.7411492,1.035403 0.5,2 L 9.2,14.2 C 9.0803025,14.67879 8.777,15 8.5,15 Z m 4.803301,-2.403806 -0.707107,0.707107 c -0.195869,0.195868 -0.637465,0.183206 -1.06066,-0.07071 l -1.06066,-0.636396 C 9.6222827,12.084639 9.0224764,11.220164 9.4142136,10.828427 L 10.828427,9.4142136 c 0.391737,-0.3917372 1.256212,0.2080691 1.767767,1.0606604 l 0.636396,1.06066 c 0.253917,0.423195 0.266579,0.864791 0.07071,1.06066 z M 15,7.5 v 1 c 0,0.277 -0.32121,0.5803025 -0.8,0.7 L 13,9.5 C 12.035403,9.7411492 11,9.554 11,9 l 0,-2 c 0,-0.554 1.035403,-0.7411492 2,-0.5 l 1.2,0.3 C 14.67879,6.9196975 15,7.223 15,7.5 Z m -2.403806,-4.8033009 0.707107,0.7071068 c 0.195868,0.1958686 0.183206,0.6374656 -0.07071,1.0606602 l -0.636396,1.0606602 c -0.511555,0.852591 -1.37603,1.4523973 -1.767767,1.0606601 L 9.4142136,5.1715729 C 9.0224764,4.7798357 9.6222827,3.9153605 10.474874,3.4038059 l 1.06066,-0.6363961 c 0.423195,-0.2539168 0.864791,-0.2665792 1.06066,-0.070711 z"
       id="tooth"
       fill="#e0e0e0" /></g></svg>
