<?xml version="1.0" encoding="UTF-8" standalone="no"?>
<!-- Created with Inkscape (http://www.inkscape.org/) -->

<svg
   width="16"
   height="16"
   viewBox="0 0 16 16"
   version="1.1"
   id="icon_svg"
   inkscape:version="1.2.2 (732a01da63, 2022-12-09)"
   sodipodi:docname="script.svg"
   xmlns:inkscape="http://www.inkscape.org/namespaces/inkscape"
   xmlns:sodipodi="http://sodipodi.sourceforge.net/DTD/sodipodi-0.dtd"
   xmlns="http://www.w3.org/2000/svg"
   xmlns:svg="http://www.w3.org/2000/svg">
  <sodipodi:namedview
     id="base_view"
     inkscape:document-units="px"
     showgrid="true"
     units="px"
     width="16px"
     viewbox-height="16"
     inkscape:snap-grids="true"
     pagecolor="#ffffff"
     bordercolor="#666666"
     borderopacity="1.0"
     inkscape:showpageshadow="2"
     inkscape:pageopacity="0.0"
     inkscape:pagecheckerboard="0"
     inkscape:deskcolor="#d1d1d1"
     inkscape:current-layer="base_layer">
    <inkscape:grid
       type="xygrid"
       id="base_grid"
       dotted="true"
       empspacing="4" />
  </sodipodi:namedview>
  <defs
     id="base_definitions">
    <clipPath
       clipPathUnits="userSpaceOnUse"
       id="clip_path">
      <path
         id="mask_path"
         d="M 0,0 V 16 H 9.6933594 A 4.5,4.5 0 0 1 8,12.5 4.5,4.5 0 0 1 12.5,8 4.5,4.5 0 0 1 16,9.6894531 V 0 Z" />
    </clipPath>
  </defs>
  <g
     inkscape:label="Base Layer"
     inkscape:groupmode="layer"
     id="base_layer">
    <g
       id="mask"
       clip-path="url(#clip_path)">
      <g
         inkscape:label="Clip"
         id="script_group">
        <path
           id="script"
           d="M 6,1 C 4.9,1 4,1.9 4,3 v 7 H 1 v 3 c 0,1.1 0.9,2 2,2 h 7 c 1.1,0 2,-0.9 2,-2 V 5 h 3 V 3 C 15,1.9 14.1,1 13,1 Z"
           fill="#e0e0e0" />
        <path
           d="M 12,5.5 H 7.5 V 3 c 0,-2 -3,-2 -3,0 v 10 c 0,2 -3,2 -3,0 V 10.5 H 4"
           id="scriptshadow"
           fill="none"
           stroke="#b3b3b3" />
      </g>
    </g>
    <circle
       cy="12.5"
       cx="12.5"
       id="entityring"
       stroke="#e0e0e0"
       stroke-width="1"
       r="3"
       fill="none" />
    <circle
       cy="12.5"
       cx="12.5"
       id="entitycenter"
       fill="#e0e0e0"
       r="1.5" />
  </g>
</svg>
