<svg version="1.1" viewBox="0 0 16 16" xmlns="http://www.w3.org/2000/svg"><defs><clipPath id="a"><path d="m0 0v16h7v-5c0-0.8 0.5-1.5 1.2-1.8 0.8-0.4 1.6-0.2 2.2 0.4l1.6 1.6 1.6-1.6c0.4-0.4 0.9-0.6 1.3-0.6h1.1v-9z"/></clipPath></defs><g clip-path="url(#a)"><circle cx="8" cy="8" r="3.5" fill="none" stroke="#e0e0e0" stroke-width="3"/><path d="m7.5 1h1c0.277 0 0.5803 0.32121 0.7 0.8l0.3 1.2c0.24115 0.9646 0.054 2-0.5 2h-2c-0.554 0-0.74115-1.0354-0.5-2l0.3-1.2c0.1197-0.47879 0.423-0.8 0.7-0.8zm-4.8033 2.4038 0.70711-0.70711c0.19587-0.19587 0.63747-0.18321 1.0607 0.070711l1.0607 0.6364c0.85259 0.51155 1.4524 1.376 1.0607 1.7678l-1.4142 1.4142c-0.39174 0.39174-1.2562-0.20807-1.7678-1.0607l-0.6364-1.0607c-0.25392-0.42319-0.26658-0.86479-0.070711-1.0607zm-1.6967 5.0962v-1c0-0.277 0.32121-0.5803 0.8-0.7l1.2-0.3c0.9646-0.24115 2-0.054 2 0.5v2c0 0.554-1.0354 0.74115-2 0.5l-1.2-0.3c-0.47879-0.1197-0.8-0.423-0.8-0.7zm2.4038 4.8033-0.70711-0.70711c-0.19587-0.19587-0.18321-0.63746 0.070711-1.0607l0.6364-1.0607c0.51155-0.85259 1.376-1.4524 1.7678-1.0607l1.4142 1.4142c0.39174 0.39174-0.20807 1.2562-1.0607 1.7678l-1.0607 0.6364c-0.42319 0.25392-0.86479 0.26658-1.0607 0.07071zm5.0962 1.6967h-1c-0.277 0-0.5803-0.32121-0.7-0.8l-0.3-1.2c-0.24115-0.9646-0.054-2 0.5-2h2c0.554 0 0.74115 1.0354 0.5 2l-0.3 1.2c-0.1197 0.47879-0.423 0.8-0.7 0.8zm4.8033-2.4038-0.70711 0.70711c-0.19587 0.19587-0.63746 0.18321-1.0607-0.07071l-1.0607-0.6364c-0.85259-0.51156-1.4524-1.376-1.0607-1.7678l1.4142-1.4142c0.39174-0.39174 1.2562 0.20807 1.7678 1.0607l0.6364 1.0607c0.25392 0.4232 0.26658 0.86479 0.07071 1.0607zm1.6967-5.0962v1c0 0.277-0.32121 0.5803-0.8 0.7l-1.2 0.3c-0.9646 0.24115-2 0.054-2-0.5v-2c0-0.554 1.0354-0.74115 2-0.5l1.2 0.3c0.47879 0.1197 0.8 0.423 0.8 0.7zm-2.4038-4.8033 0.70711 0.70711c0.19587 0.19587 0.18321 0.63747-0.07071 1.0607l-0.6364 1.0607c-0.51156 0.85259-1.376 1.4524-1.7678 1.0607l-1.4142-1.4142c-0.39174-0.39174 0.20807-1.2562 1.0607-1.7678l1.0607-0.6364c0.4232-0.25392 0.86479-0.26658 1.0607-0.070711z" fill="#e0e0e0"/></g><path d="m9 16v-5l3 3 3-3v5" fill="none" stroke="#80ff45" stroke-linejoin="round" stroke-width="2"/></svg>
