<?xml version="1.0" encoding="UTF-8" standalone="no"?>
<!-- Created with Inkscape (http://www.inkscape.org/) -->

<svg
   width="16"
   height="16"
   viewBox="0 0 16 16"
   version="1.1"
   id="icon_svg"
   inkscape:version="1.2.2 (732a01da63, 2022-12-09)"
   sodipodi:docname="animator.svg"
   xmlns:inkscape="http://www.inkscape.org/namespaces/inkscape"
   xmlns:sodipodi="http://sodipodi.sourceforge.net/DTD/sodipodi-0.dtd"
   xmlns="http://www.w3.org/2000/svg"
   xmlns:svg="http://www.w3.org/2000/svg">
  <sodipodi:namedview
     id="base_view"
     inkscape:document-units="px"
     showgrid="true"
     units="px"
     width="16px"
     viewbox-height="16"
     inkscape:snap-grids="true"
     pagecolor="#ffffff"
     bordercolor="#666666"
     borderopacity="1.0"
     inkscape:showpageshadow="2"
     inkscape:pageopacity="0.0"
     inkscape:pagecheckerboard="0"
     inkscape:deskcolor="#d1d1d1"
     inkscape:current-layer="base_layer">
    <inkscape:grid
       type="xygrid"
       id="base_grid"
       dotted="true"
       empspacing="4" />
  </sodipodi:namedview>
  <defs
     id="base_definitions" />
  <g
     inkscape:label="Base Layer"
     inkscape:groupmode="layer"
     id="base_layer">
    <path
       id="edges"
       d="M 2,1 C 1.4460036,1 1,1.4460036 1,2 v 12 c 0,0.553994 0.4460036,1 1,1 v -2 h 2 v 2 h 8 v -2 h 2 v 2 c 0.553994,0 1,-0.446006 1,-1 V 2 C 15,1.4460036 14.553994,1 14,1 V 3 H 12 V 1 H 4 V 3 H 2 Z M 2,5 H 4 V 7 H 2 Z m 4.4287465,0.2572479 4.1425075,2.4855042 c 0.23679,0.1420741 0.23679,0.3724217 0,0.5144958 L 6.4287465,10.742752 C 6.1919563,10.884826 6,10.776142 6,10.5 v -5 C 6,5.2238576 6.1919563,5.1151738 6.4287465,5.2572479 Z M 12,5 h 2 V 7 H 12 Z M 2,9 h 2 v 2 H 2 Z m 10,0 h 2 v 2 h -2 z"
       fill="#c38ef1" />
  </g>
</svg>
