<?xml version="1.0" encoding="UTF-8" standalone="no"?>
<!-- Created with Inkscape (http://www.inkscape.org/) -->

<svg
   width="16"
   height="16"
   viewBox="0 0 16 16"
   version="1.1"
   id="icon_svg"
   inkscape:version="1.2.2 (732a01da63, 2022-12-09)"
   sodipodi:docname="head_rig.svg"
   xmlns:inkscape="http://www.inkscape.org/namespaces/inkscape"
   xmlns:sodipodi="http://sodipodi.sourceforge.net/DTD/sodipodi-0.dtd"
   xmlns="http://www.w3.org/2000/svg"
   xmlns:svg="http://www.w3.org/2000/svg">
  <sodipodi:namedview
     id="base_view"
     inkscape:document-units="px"
     showgrid="true"
     units="px"
     width="16px"
     viewbox-height="16"
     inkscape:snap-grids="true"
     pagecolor="#ffffff"
     bordercolor="#666666"
     borderopacity="1.0"
     inkscape:showpageshadow="2"
     inkscape:pageopacity="0.0"
     inkscape:pagecheckerboard="0"
     inkscape:deskcolor="#d1d1d1"
     inkscape:current-layer="base_layer">
    <inkscape:grid
       type="xygrid"
       id="base_grid"
       dotted="true"
       empspacing="4" />
  </sodipodi:namedview>
  <defs
     id="base_definitions" />
  <g
     inkscape:label="Base Layer"
     inkscape:groupmode="layer"
     id="base_layer">
    <path
       d="M 12.345703,12.242188 C 11.287573,13.327248 9.8083425,14 8.0014993,14 6.194656,14 4.7178896,13.32962 3.6601562,12.248047 2.5981945,12.989624 2.0039084,13.97474 2,15 h 12 c -7.5e-5,-1.026746 -0.592382,-2.014157 -1.654297,-2.757812 z"
       id="shoulders"
       fill="#c38ef1" />
    <path
       id="head_base"
       d="M 8 1 C 5.2300028 1 3 3.2300028 3 6 L 3 8 C 3 10.769997 5.2300028 13 8 13 C 10.769997 13 13 10.769997 13 8 L 13 6 C 13 3.2300028 10.769997 1 8 1 z M 6 6 A 1 1 0 0 1 7 7 A 1 1 0 0 1 6 8 A 1 1 0 0 1 5 7 A 1 1 0 0 1 6 6 z M 10 6 A 1 1 0 0 1 11 7 A 1 1 0 0 1 10 8 A 1 1 0 0 1 9 7 A 1 1 0 0 1 10 6 z M 5.1992188 9 L 10.8125 9 A 3 3 0 0 1 8 11 A 3 3 0 0 1 5.1992188 9 z "
       fill="#c38ef1" />
  </g>
</svg>
