<?xml version="1.0" encoding="UTF-8" standalone="no"?>
<!-- Created with Inkscape (http://www.inkscape.org/) -->

<svg
   width="16"
   height="16"
   viewBox="0 0 16 16"
   version="1.1"
   id="icon_svg"
   inkscape:version="1.3 (0e150ed6c4, 2023-07-21)"
   sodipodi:docname="download.svg"
   xmlns:inkscape="http://www.inkscape.org/namespaces/inkscape"
   xmlns:sodipodi="http://sodipodi.sourceforge.net/DTD/sodipodi-0.dtd"
   xmlns="http://www.w3.org/2000/svg"
   xmlns:svg="http://www.w3.org/2000/svg"
   xmlns:rdf="http://www.w3.org/1999/02/22-rdf-syntax-ns#"
   xmlns:cc="http://creativecommons.org/ns#"
   xmlns:dc="http://purl.org/dc/elements/1.1/">
  <metadata
     id="metadata">
    <rdf:RDF>
      <cc:Work
         rdf:about="">
        <dc:creator>
          <cc:Agent>
            <dc:title>David Krummenacher</dc:title>
          </cc:Agent>
        </dc:creator>
        <dc:publisher>
          <cc:Agent>
            <dc:title>Gonzago Framework</dc:title>
          </cc:Agent>
        </dc:publisher>
        <dc:source>https://github.com/godot-gonzago</dc:source>
        <cc:license
           rdf:resource="http://creativecommons.org/licenses/by/4.0/" />
        <dc:subject>
          <rdf:Bag>
            <rdf:li>mask</rdf:li>
            <rdf:li>download</rdf:li>
            <rdf:li>down</rdf:li>
            <rdf:li>arrow</rdf:li>
          </rdf:Bag>
        </dc:subject>
      </cc:Work>
      <cc:License
         rdf:about="http://creativecommons.org/licenses/by/4.0/">
        <cc:permits
           rdf:resource="http://creativecommons.org/ns#Reproduction" />
        <cc:permits
           rdf:resource="http://creativecommons.org/ns#Distribution" />
        <cc:requires
           rdf:resource="http://creativecommons.org/ns#Notice" />
        <cc:requires
           rdf:resource="http://creativecommons.org/ns#Attribution" />
        <cc:permits
           rdf:resource="http://creativecommons.org/ns#DerivativeWorks" />
      </cc:License>
    </rdf:RDF>
  </metadata>
  <sodipodi:namedview
     id="base_view"
     showgrid="true"
     units="px"
     width="16px"
     viewbox-height="16"
     inkscape:snap-grids="true"
     pagecolor="#333b4f"
     bordercolor="#8f939e"
     borderopacity="1"
     inkscape:pageopacity="0"
     inkscape:deskcolor="#1c202b"
     inkscape:current-layer="base_layer"
     inkscape:showpageshadow="0"
     inkscape:zoom="28.284271"
     inkscape:cx="9.6873629"
     inkscape:cy="10.341437"
     inkscape:window-width="1368"
     inkscape:window-height="850"
     inkscape:window-x="-6"
     inkscape:window-y="-6"
     inkscape:window-maximized="1"
     inkscape:document-units="px"
     inkscape:pagecheckerboard="0">
    <inkscape:grid
       type="xygrid"
       id="base_grid"
       dotted="true"
       empspacing="4"
       empcolor="#699ce8"
       empopacity="0.3"
       color="#699ce8"
       opacity="0.3"
       originx="0"
       originy="0"
       spacingy="1"
       spacingx="1"
       units="px"
       visible="true" />
  </sodipodi:namedview>
  <defs
     id="base_definitions">
    <mask
       maskUnits="userSpaceOnUse"
       id="download_mask">
      <g
         id="download_mask_group">
        <rect
           id="download_mask_base"
           width="16"
           height="16"
           x="0"
           y="0"
           fill="#ffffff" />
        <path
           d="M 7,6.5 C 6.2,6.5 5.5,7.2 5.5,8 V 8.5 H 4 C 2.7,8.5 2.2,10 3,11 l 3.88,5 H 9.12 L 13,11 C 13.8,10 13.3,8.5 12,8.5 H 10.5 V 8 C 10.5,7.2 9.8,6.5 9,6.5 Z"
           id="download_mask_shape"
           fill="#000000" />
      </g>
    </mask>
    <clipPath
       clipPathUnits="userSpaceOnUse"
       id="download_clipping_neg">
      <path
         d="M 7,6.5 C 6.2,6.5 5.5,7.2 5.5,8 V 8.5 H 4 C 2.7,8.5 2.2,10 3,11 l 3.88,5 H 9.12 L 13,11 C 13.8,10 13.3,8.5 12,8.5 H 10.5 V 8 C 10.5,7.2 9.8,6.5 9,6.5 Z"
         id="download_clipping_neg_shape" />
    </clipPath>
    <clipPath
       clipPathUnits="userSpaceOnUse"
       id="download_clipping_pos">
      <path
         id="download_clipping_pos_shape"
         d="M 0 0 L 0 16 L 6.88 16 L 3 11 C 2.2 10 2.7 8.5 4 8.5 L 5.5 8.5 L 5.5 8 C 5.5 7.2 6.2 6.5 7 6.5 L 9 6.5 C 9.8 6.5 10.5 7.2 10.5 8 L 10.5 8.5 L 12 8.5 C 13.3 8.5 13.8 10 13 11 L 9.12 16 L 16 16 L 16 0 L 0 0 z " />
    </clipPath>
  </defs>
  <g
     inkscape:label="Base Layer"
     inkscape:groupmode="layer"
     id="base_layer">
    <rect
       id="download_clipped_element_neg"
       width="16"
       height="16"
       x="0"
       y="0"
       fill="#cccccc"
       clip-path="url(#download_clipping_neg)" />
    <rect
       id="download_clipped_element_pos"
       width="16"
       height="16"
       x="0"
       y="0"
       fill="#aaaaaa"
       clip-path="url(#download_clipping_pos)" />
    <rect
       id="download_masked_element"
       width="16"
       height="16"
       x="0"
       y="0"
       fill="#888888"
       mask="url(#download_mask)" />
    <path
       d="m 7,8 h 2 v 2 h 3 L 8,15 4,10 h 3 z"
       id="download_icon"
       fill="#e0e0e0" />
  </g>
</svg>
