<?xml version="1.0" encoding="UTF-8" standalone="no"?>
<!-- Created with Inkscape (http://www.inkscape.org/) -->

<svg
   width="16"
   height="16"
   viewBox="0 0 16 16"
   version="1.1"
   id="icon_svg"
   inkscape:version="1.2.2 (732a01da63, 2022-12-09)"
   sodipodi:docname="keyboard.svg"
   xmlns:inkscape="http://www.inkscape.org/namespaces/inkscape"
   xmlns:sodipodi="http://sodipodi.sourceforge.net/DTD/sodipodi-0.dtd"
   xmlns="http://www.w3.org/2000/svg"
   xmlns:svg="http://www.w3.org/2000/svg"
   xmlns:rdf="http://www.w3.org/1999/02/22-rdf-syntax-ns#"
   xmlns:cc="http://creativecommons.org/ns#"
   xmlns:dc="http://purl.org/dc/elements/1.1/">
  <metadata
     id="metadata">
    <rdf:RDF>
      <cc:Work
         rdf:about="">
        <cc:license
           rdf:resource="http://creativecommons.org/licenses/by/4.0/" />
        <dc:creator>
          <cc:Agent>
            <dc:title>David Krummenacher</dc:title>
          </cc:Agent>
        </dc:creator>
        <dc:publisher>
          <cc:Agent>
            <dc:title>Gonzago Framework</dc:title>
          </cc:Agent>
        </dc:publisher>
        <dc:source>https://github.com/godot-gonzago</dc:source>
        <dc:description>Recreation of https://github.com/godotengine/godot/blob/master/editor/icons/Keyboard.svg</dc:description>
      </cc:Work>
      <cc:License
         rdf:about="http://creativecommons.org/licenses/by/4.0/">
        <cc:permits
           rdf:resource="http://creativecommons.org/ns#Reproduction" />
        <cc:permits
           rdf:resource="http://creativecommons.org/ns#Distribution" />
        <cc:requires
           rdf:resource="http://creativecommons.org/ns#Notice" />
        <cc:requires
           rdf:resource="http://creativecommons.org/ns#Attribution" />
        <cc:permits
           rdf:resource="http://creativecommons.org/ns#DerivativeWorks" />
      </cc:License>
    </rdf:RDF>
  </metadata>
  <sodipodi:namedview
     id="base_view"
     showgrid="true"
     units="px"
     width="16px"
     viewbox-height="16"
     inkscape:snap-grids="true"
     pagecolor="#333b4f"
     bordercolor="#8f939e"
     borderopacity="1"
     inkscape:pageopacity="0"
     inkscape:deskcolor="#1c202b"
     inkscape:current-layer="base_layer"
     inkscape:showpageshadow="0"
     inkscape:zoom="16"
     inkscape:cx="4.0625"
     inkscape:cy="12.09375"
     inkscape:window-width="1368"
     inkscape:window-height="850"
     inkscape:window-x="-6"
     inkscape:window-y="-6"
     inkscape:window-maximized="1"
     inkscape:document-units="px"
     inkscape:pagecheckerboard="0">
    <inkscape:grid
       type="xygrid"
       id="base_grid"
       dotted="true"
       empspacing="4"
       empcolor="#699ce8"
       empopacity="0.3"
       color="#699ce8"
       opacity="0.3" />
  </sodipodi:namedview>
  <defs
     id="base_definitions">
    <clipPath
       clipPathUnits="userSpaceOnUse"
       id="border_clip">
      <rect
         id="border_clip_shape"
         width="16"
         height="12"
         x="0"
         y="4" />
    </clipPath>
    <mask
       maskUnits="userSpaceOnUse"
       id="base_mask">
      <g
         id="base_mask_group">
        <rect
           id="base_mask_base"
           width="16"
           height="16"
           x="0"
           y="0"
           fill="#ffffff" />
        <path
           d="M 5.5,2.6 3.6,7 H 5 L 5.4,6.2 H 7 L 7.3,7 H 8.8 L 6.9,2.6 Z M 6.2,4 6.6,5.1 H 5.8 Z"
           id="base_mask_a"
           fill="#000000" />
        <path
           id="base_mask_q"
           d="m 9.8,6.9 c -1.4,0 -2.5,1 -2.5,2.3 0,0.9 0.6,1.7 1.4,2 0.9,0.4 1,0.8 1.9,1.1 0.6,0.2 1.3,0.1 1.8,-0.4 l -0.5,-0.6 c 0,0 -0.9,0.5 -0.9,-0.1 0.8,-0.4 1.4,-1.1 1.3,-2.2 0,-1.1 -1.1,-2.1 -2.5,-2.1 z m 0,1 c 0.6,0 1,0.5 1,1.2 0,0.7 -0.5,1.2 -1,1.2 -0.6,0 -1,-0.5 -1,-1.2 0,-0.7 0.5,-1.2 1,-1.2 z"
           fill="#000000" />
      </g>
    </mask>
  </defs>
  <g
     inkscape:label="Base Layer"
     inkscape:groupmode="layer"
     id="base_layer">
    <rect
       id="border"
       width="13"
       height="13"
       x="1.5"
       y="1.5"
       ry="1.5"
       fill="none"
       stroke="#e0e0e0"
       clip-path="url(#border_clip)" />
    <rect
       id="base"
       width="10"
       height="11"
       x="3"
       y="2"
       ry="1"
       fill="#e0e0e0"
       mask="url(#base_mask)" />
  </g>
</svg>
