<svg version="1.1" viewBox="0 0 16 16" xmlns="http://www.w3.org/2000/svg"><defs><clipPath id="a"><rect y="4" width="16" height="12"/></clipPath><mask id="b" maskUnits="userSpaceOnUse"><rect width="16" height="16" fill="#fff"/><path d="m5.5 2.6-1.9 4.4h1.4l0.4-0.8h1.6l0.3 0.8h1.5l-1.9-4.4zm0.7 1.4 0.4 1.1h-0.8z"/><path d="m9.8 6.9c-1.4 0-2.5 1-2.5 2.3 0 0.9 0.6 1.7 1.4 2 0.9 0.4 1 0.8 1.9 1.1 0.6 0.2 1.3 0.1 1.8-0.4l-0.5-0.6s-0.9 0.5-0.9-0.1c0.8-0.4 1.4-1.1 1.3-2.2 0-1.1-1.1-2.1-2.5-2.1zm0 1c0.6 0 1 0.5 1 1.2s-0.5 1.2-1 1.2c-0.6 0-1-0.5-1-1.2s0.5-1.2 1-1.2z"/></mask></defs><rect x="1.5" y="1.5" width="13" height="13" ry="1.5" clip-path="url(#a)" fill="none" stroke="#e0e0e0"/><rect x="3" y="2" width="10" height="11" ry="1" fill="#e0e0e0" mask="url(#b)"/></svg>
