<svg version="1.1" viewBox="0 0 16 16" xmlns="http://www.w3.org/2000/svg"><defs><clipPath id="a"><rect y="4" width="16" height="12"/></clipPath><mask id="b" maskUnits="userSpaceOnUse"><rect width="16" height="16" fill="#fff"/><path d="m11.1 4.5c0.5 0.9 0.2 2.1-0.5 2.7-0.4 0.4-1 1-1 1.3h-2.6c0-0.7 0.5-1.3 1-1.8 0.4-0.2 0.8-1 0.2-1.2-0.7-0.2-1.4 0.1-1.6 0.7l-2.1-1c0.6-1.1 1.9-1.8 3.3-1.9s2.7 0.2 3.4 1.2zm-2.7 4.5c0.7 0 1.5 0.6 1.5 1.4s-0.69 1.4-1.5 1.4c-0.8 0-1.7-0.6-1.6-1.4 0.13-0.8 0.9-1.4 1.6-1.4z"/></mask></defs><rect x="1.5" y="1.5" width="13" height="13" ry="1.5" clip-path="url(#a)" fill="none" stroke="#ff5f5f"/><rect x="3" y="2" width="10" height="11" ry="1" fill="#ff5f5f" mask="url(#b)"/></svg>
