<?xml version="1.0" encoding="UTF-8" standalone="no"?>
<!-- Created with Inkscape (http://www.inkscape.org/) -->

<svg
   width="16"
   height="16"
   viewBox="0 0 16 16"
   version="1.1"
   id="icon_svg"
   inkscape:version="1.2 (dc2aedaf03, 2022-05-15)"
   sodipodi:docname="splash.svg"
   xmlns:inkscape="http://www.inkscape.org/namespaces/inkscape"
   xmlns:sodipodi="http://sodipodi.sourceforge.net/DTD/sodipodi-0.dtd"
   xmlns="http://www.w3.org/2000/svg"
   xmlns:svg="http://www.w3.org/2000/svg">
  <sodipodi:namedview
     id="base_view"
     inkscape:document-units="px"
     showgrid="true"
     units="px"
     width="16px"
     viewbox-height="16"
     inkscape:snap-grids="true"
     pagecolor="#ffffff"
     bordercolor="#999999"
     borderopacity="1"
     inkscape:showpageshadow="0"
     inkscape:pageopacity="0"
     inkscape:pagecheckerboard="0"
     inkscape:deskcolor="#d1d1d1"
     inkscape:zoom="32"
     inkscape:cx="10.78125"
     inkscape:cy="10.328125"
     inkscape:window-width="1368"
     inkscape:window-height="850"
     inkscape:window-x="-6"
     inkscape:window-y="-6"
     inkscape:window-maximized="1"
     inkscape:current-layer="splashes">
    <inkscape:grid
       type="xygrid"
       id="base_grid"
       dotted="true"
       empspacing="4" />
  </sodipodi:namedview>
  <defs
     id="base_definitions" />
  <g
     inkscape:label="Base Layer"
     inkscape:groupmode="layer"
     id="base_layer">
    <rect
       id="container"
       width="12"
       height="12"
       x="2"
       y="2"
       ry="1"
       fill="none"
       stroke="#8eef97"
       stroke-width="2" />
    <g
       id="splashes"
       fill="#8eef97">
      <path
         id="splash_1"
         d="M 6,6 C 6,6.5 5,9 5,9 5,9 4,6.5 4,6 4,5.5 4.5,5 5,5 5.5,5 6,5.5 6,6 Z" />
      <path
         d="m 11.4,7.4 c -0.8,0.8 -5.4,2.6 -5.4,2.6 0,0 1.8,-4.6 2.6,-5.4 0.8,-0.8 2,-0.8 2.8,-2e-7 0.8,0.8 0.8,2 0,2.8 z"
         id="splash_2" />
      <path
         id="splash_3"
         d="m 11,11 c 0,0.5 -0.5,1 -1,1 -0.5,0 -3,-1 -3,-1 0,0 2.5,-1 3,-1 0.5,0 1,0.5 1,1 z" />
    </g>
  </g>
</svg>
