<?xml version="1.0" encoding="UTF-8" standalone="no"?>
<!-- Created with Inkscape (http://www.inkscape.org/) -->

<svg
   width="16"
   height="16"
   viewBox="0 0 16 16"
   version="1.1"
   id="icon_svg"
   inkscape:version="1.2.2 (732a01da63, 2022-12-09)"
   sodipodi:docname="list_ordered.svg"
   xmlns:inkscape="http://www.inkscape.org/namespaces/inkscape"
   xmlns:sodipodi="http://sodipodi.sourceforge.net/DTD/sodipodi-0.dtd"
   xmlns="http://www.w3.org/2000/svg"
   xmlns:svg="http://www.w3.org/2000/svg">
  <sodipodi:namedview
     id="base_view"
     inkscape:document-units="px"
     showgrid="true"
     units="px"
     width="16px"
     viewbox-height="16"
     inkscape:snap-grids="true"
     pagecolor="#ffffff"
     bordercolor="#666666"
     borderopacity="1.0"
     inkscape:showpageshadow="2"
     inkscape:pageopacity="0.0"
     inkscape:pagecheckerboard="0"
     inkscape:deskcolor="#d1d1d1"
     inkscape:current-layer="base_layer">
    <inkscape:grid
       type="xygrid"
       id="base_grid"
       dotted="true"
       empspacing="4" />
  </sodipodi:namedview>
  <defs
     id="base_definitions" />
  <g
     inkscape:label="Base Layer"
     inkscape:groupmode="layer"
     id="base_layer">
    <g
       id="lines"
       stroke="#e0e0e0"
       stroke-width="2">
      <path
         d="m 6,3 h 8"
         id="line1" />
      <path
         d="m 6,8 h 8"
         id="line2" />
      <path
         d="m 6,13 h 8"
         id="line3" />
    </g>
    <g
       id="numbers"
       fill="none"
       stroke="#e0e0e0"
       stroke-width="1.5px"
       stroke-linejoin="round">
      <path
         d="M 3.5,5 V 1.5 H 2"
         id="number_1" />
      <path
         d="m 2,7.5 c 0,0 0,-1 1,-1 1,0 1,1 1,1 l -2,2 h 3"
         id="number_2" />
      <path
         d="m 2,12.5 c 0,0 0,-1 1,-1 1,0 1,1 1,1 L 3.5,13 4,13.5 c 0,0 0,1 -1,1 -1,0 -1,-1 -1,-1"
         id="number_3" />
    </g>
  </g>
</svg>
