<?xml version="1.0" encoding="UTF-8" standalone="no"?>
<!-- Created with Inkscape (http://www.inkscape.org/) -->

<svg
   width="16"
   height="16"
   viewBox="0 0 16 16"
   version="1.1"
   id="icon_svg"
   inkscape:version="1.2.2 (732a01da63, 2022-12-09)"
   sodipodi:docname="rocket.svg"
   xmlns:inkscape="http://www.inkscape.org/namespaces/inkscape"
   xmlns:sodipodi="http://sodipodi.sourceforge.net/DTD/sodipodi-0.dtd"
   xmlns="http://www.w3.org/2000/svg"
   xmlns:svg="http://www.w3.org/2000/svg">
  <sodipodi:namedview
     id="base_view"
     inkscape:document-units="px"
     showgrid="true"
     units="px"
     width="16px"
     viewbox-height="16"
     inkscape:snap-grids="true"
     pagecolor="#ffffff"
     bordercolor="#666666"
     borderopacity="1.0"
     inkscape:showpageshadow="2"
     inkscape:pageopacity="0.0"
     inkscape:pagecheckerboard="0"
     inkscape:deskcolor="#d1d1d1"
     inkscape:current-layer="base_layer">
    <inkscape:grid
       type="xygrid"
       id="base_grid"
       dotted="true"
       empspacing="4" />
  </sodipodi:namedview>
  <defs
     id="base_definitions" />
  <g
     inkscape:label="Base Layer"
     inkscape:groupmode="layer"
     id="base_layer">
    <path
       d="m 3,11 2,2 c -1,1 -3,1 -3,1 0,0 0,-2 1,-3 z"
       id="flame"
       fill="#e0e0e0" />
    <path
       id="body"
       d="M 12 2 C 8 2 4 8 4 8 L 8 12 C 8 12 14 8 14 4 L 14 2 L 12 2 z M 10 5 A 1 1 0 0 1 11 6 A 1 1 0 0 1 10 7 A 1 1 0 0 1 9 6 A 1 1 0 0 1 10 5 z "
       fill="#e0e0e0" />
    <path
       d="M 7,9 H 1 C 1,9 2,6 4,6 h 3 z"
       id="wing_left"
       fill="#e0e0e0" />
    <path
       d="m 7,9 v 6 c 0,0 3,-1 3,-3 V 9 Z"
       id="wing_right"
       fill="#e0e0e0" />
  </g>
</svg>
