<?xml version="1.0" encoding="UTF-8" standalone="no"?>
<!-- Created with Inkscape (http://www.inkscape.org/) -->

<svg
   width="16"
   height="16"
   viewBox="0 0 16 16"
   version="1.1"
   id="icon_svg"
   inkscape:version="1.2.2 (732a01da63, 2022-12-09)"
   sodipodi:docname="script.svg"
   xmlns:inkscape="http://www.inkscape.org/namespaces/inkscape"
   xmlns:sodipodi="http://sodipodi.sourceforge.net/DTD/sodipodi-0.dtd"
   xmlns="http://www.w3.org/2000/svg"
   xmlns:svg="http://www.w3.org/2000/svg">
  <sodipodi:namedview
     id="base_view"
     inkscape:document-units="px"
     showgrid="true"
     units="px"
     width="16px"
     viewbox-height="16"
     inkscape:snap-grids="true"
     pagecolor="#ffffff"
     bordercolor="#666666"
     borderopacity="1.0"
     inkscape:showpageshadow="2"
     inkscape:pageopacity="0.0"
     inkscape:pagecheckerboard="0"
     inkscape:deskcolor="#d1d1d1"
     inkscape:current-layer="base_layer">
    <inkscape:grid
       type="xygrid"
       id="base_grid"
       dotted="true"
       empspacing="4" />
  </sodipodi:namedview>
  <defs
     id="base_definitions" />
  <g
     inkscape:label="Base Layer"
     inkscape:groupmode="layer"
     id="base_layer">
    <path
       id="script"
       d="M 6,1 C 4.9,1 4,1.9 4,3 v 7 H 1 v 3 c 0,1.1 0.9,2 2,2 h 7 c 1.1,0 2,-0.9 2,-2 V 5 h 3 V 3 C 15,1.9 14.1,1 13,1 Z"
       fill="#e0e0e0" />
    <path
       d="M 12,6 V 5 H 8 V 3 C 8,1.9 7.1,1 6,1 4.9,1 4,1.9 4,3 v 7 H 1 v 3 c 0,1.1 0.9,2 2,2 1.1,0 2,-0.9 2,-2 V 3 C 5,2.45 5.45,2 6,2 6.55,2 7,2.45 7,3 v 3 m -5,5 h 2 v 2 C 4,13.55 3.55,14 3,14 2.45,14 2,13.55 2,13 Z"
       fill="#b3b3b3"
       id="scriptshadow" />
  </g>
</svg>
