<svg version="1.1" viewBox="0 0 16 16" xmlns="http://www.w3.org/2000/svg"><defs><mask id="a" maskUnits="userSpaceOnUse"><rect width="16" height="16" fill="#fff"/><circle cx="6.5" cy="6.5" r="1.5"/><circle cx="9.5" cy="9.5" r="1.5"/><circle cx="12.5" cy="12.5" r="1.5"/></mask><mask id="b" maskUnits="userSpaceOnUse"><rect width="16" height="16" fill="#fff"/><path d="m15 9.5c0 5.5 0 5.5-5.5 5.5s-5.5 0-5.5-5.5 0-5.5 5.5-5.5 5.5 0 5.5 5.5z" stroke="#000" stroke-width="3"/></mask></defs><g fill="#e0e0e0"><path d="m12 6.5c0 5.5 0 5.5-5.5 5.5s-5.5 0-5.5-5.5 0-5.5 5.5-5.5 5.5 0 5.5 5.5z" mask="url(#b)"/><path d="m15 9.5c0 5.5 0 5.5-5.5 5.5s-5.5 0-5.5-5.5 0-5.5 5.5-5.5 5.5 0 5.5 5.5z" mask="url(#a)"/></g></svg>
