<?xml version="1.0" encoding="UTF-8" standalone="no"?>
<!-- Created with Inkscape (http://www.inkscape.org/) -->

<svg
   width="16"
   height="16"
   viewBox="0 0 16 16"
   version="1.1"
   id="icon_svg"
   inkscape:version="1.2.2 (732a01da63, 2022-12-09)"
   sodipodi:docname="save.svg"
   xmlns:inkscape="http://www.inkscape.org/namespaces/inkscape"
   xmlns:sodipodi="http://sodipodi.sourceforge.net/DTD/sodipodi-0.dtd"
   xmlns="http://www.w3.org/2000/svg"
   xmlns:svg="http://www.w3.org/2000/svg">
  <sodipodi:namedview
     id="base_view"
     inkscape:document-units="px"
     showgrid="true"
     units="px"
     width="16px"
     viewbox-height="16"
     inkscape:snap-grids="true"
     pagecolor="#ffffff"
     bordercolor="#666666"
     borderopacity="1.0"
     inkscape:showpageshadow="2"
     inkscape:pageopacity="0.0"
     inkscape:pagecheckerboard="0"
     inkscape:deskcolor="#d1d1d1"
     inkscape:current-layer="floppy">
    <inkscape:grid
       type="xygrid"
       id="base_grid"
       dotted="true"
       empspacing="4" />
  </sodipodi:namedview>
  <defs
     id="base_definitions" />
  <g
     inkscape:label="Base Layer"
     inkscape:groupmode="layer"
     id="base_layer">
    <g
       id="floppy"
       fill="#e0e0e0">
      <path
         id="base"
         d="M 3 1 C 1.9 1 1 1.9 1 3 L 1 13 C 1 14.1 1.9 15 3 15 L 13 15 C 14.1 15 15 14.1 15 13 L 15 4 L 12 1 L 11 1 L 11 7 L 3 7 L 3 1 z M 8 9 A 2 2 0 0 1 10 11 A 2 2 0 0 1 8 13 A 2 2 0 0 1 6 11 A 2 2 0 0 1 8 9 z " />
      <rect
         id="slider"
         width="3"
         height="5"
         x="4"
         y="1"
         ry="0" />
    </g>
  </g>
</svg>
