<?xml version="1.0" encoding="UTF-8" standalone="no"?>
<!-- Created with Inkscape (http://www.inkscape.org/) -->

<svg
   width="16"
   height="16"
   viewBox="0 0 16 16"
   version="1.1"
   id="icon_svg"
   inkscape:version="1.3 (0e150ed6c4, 2023-07-21)"
   sodipodi:docname="achievement_manager.svg"
   xml:space="preserve"
   xmlns:inkscape="http://www.inkscape.org/namespaces/inkscape"
   xmlns:sodipodi="http://sodipodi.sourceforge.net/DTD/sodipodi-0.dtd"
   xmlns="http://www.w3.org/2000/svg"
   xmlns:svg="http://www.w3.org/2000/svg"
   xmlns:rdf="http://www.w3.org/1999/02/22-rdf-syntax-ns#"
   xmlns:cc="http://creativecommons.org/ns#"
   xmlns:dc="http://purl.org/dc/elements/1.1/"><metadata
     id="metadata"><rdf:RDF><cc:Work
         rdf:about=""><dc:creator><cc:Agent><dc:title>David Krummenacher</dc:title></cc:Agent></dc:creator><dc:publisher><cc:Agent><dc:title>Gonzago Framework</dc:title></cc:Agent></dc:publisher><dc:source>https://github.com/godot-gonzago</dc:source><cc:license
           rdf:resource="http://creativecommons.org/licenses/by/4.0/" /><dc:subject><rdf:Bag><rdf:li>achievement</rdf:li><rdf:li>trophy</rdf:li><rdf:li>manager</rdf:li></rdf:Bag></dc:subject></cc:Work><cc:License
         rdf:about="http://creativecommons.org/licenses/by/4.0/"><cc:permits
           rdf:resource="http://creativecommons.org/ns#Reproduction" /><cc:permits
           rdf:resource="http://creativecommons.org/ns#Distribution" /><cc:requires
           rdf:resource="http://creativecommons.org/ns#Notice" /><cc:requires
           rdf:resource="http://creativecommons.org/ns#Attribution" /><cc:permits
           rdf:resource="http://creativecommons.org/ns#DerivativeWorks" /></cc:License></rdf:RDF></metadata><sodipodi:namedview
     id="base_view"
     showgrid="true"
     units="px"
     width="16px"
     viewbox-height="16"
     inkscape:snap-grids="true"
     pagecolor="#333b4f"
     bordercolor="#8f939e"
     borderopacity="1"
     inkscape:pageopacity="0"
     inkscape:deskcolor="#1c202b"
     inkscape:current-layer="base_layer"
     inkscape:showpageshadow="0"
     inkscape:zoom="32"
     inkscape:cx="7.125"
     inkscape:cy="6.671875"
     inkscape:window-width="1368"
     inkscape:window-height="850"
     inkscape:window-x="-6"
     inkscape:window-y="-6"
     inkscape:window-maximized="1"
     inkscape:document-units="px"
     inkscape:pagecheckerboard="0"><inkscape:grid
       type="xygrid"
       id="base_grid"
       dotted="true"
       empspacing="4"
       empcolor="#699ce8"
       empopacity="0.3"
       color="#699ce8"
       opacity="0.3"
       originx="0"
       originy="0"
       spacingy="1"
       spacingx="1"
       units="px"
       visible="true" /></sodipodi:namedview><defs
     id="base_definitions"><clipPath
       clipPathUnits="userSpaceOnUse"
       id="base_clip"><rect
         id="base_clip_shape"
         width="8"
         height="4"
         x="4"
         y="11" /></clipPath><clipPath
       clipPathUnits="userSpaceOnUse"
       id="manager_clipping_pos"><path
         id="manager_clipping_pos_shape"
         d="M 0,0 V 16 H 7 V 11 C 7,10.2 7.5,9.5 8.2,9.2 9,8.8 9.8,9 10.4,9.6 L 12,11.2 13.6,9.6 C 14,9.2 14.5,9 14.9,9 15,9 16,9 16,9 V 0 Z" /></clipPath></defs><g
     inkscape:label="Base Layer"
     inkscape:groupmode="layer"
     id="base_layer"><g
       id="trophy"
       clip-path="url(#manager_clipping_pos)"><path
         id="cup"
         d="m 5,1 6,0 c 0.6,0 0.9,0.6 0.9,1.3 L 11.1,10.2 C 11,10.7 10.7,11 10.3,11 H 5.8 C 5.3,11 5,10.7 4.9,10.2 L 4.1,2.3 C 4,1.6 4.446,1 5,1 Z"
         fill="#e0e0e0" /><circle
         id="base"
         cx="8"
         cy="15"
         r="3"
         clip-path="url(#base_clip)"
         fill="#e0e0e0" /><path
         d="m 8,11 v 2"
         id="handle"
         fill="none"
         stroke="#e0e0e0"
         stroke-width="2" /><path
         id="side_handle"
         d="M 6.6,7 C 6.8,8.2 6.1,8.9 5,8.8 3.9,8.6 2.5,7.6 1.8,6.3 1,4.7 1.4,3.2 3,3.5 4.7,3.8 6.3,5.5 6.6,7 Z m 2.8,0 C 9.2,8.2 9.9,8.9 11,8.8 12,8.6 13.5,7.6 14.2,6.3 15,4.7 14.6,3.2 12.9,3.5 11.3,3.8 9.7,5.5 9.4,7 Z"
         stroke="#e0e0e0"
         stroke-width="2"
         fill="none" /></g><path
       d="m 9,16 v -5 l 3,3 3,-3 v 5"
       id="manager_icon"
       fill="none"
       stroke="#80ff45"
       stroke-linejoin="round"
       stroke-width="2" /></g></svg>
